<?xml version="1.0" encoding="UTF-8"?>
<svg id="Layer_1" xmlns="http://www.w3.org/2000/svg" viewBox="0 0 2095.93 339.13">
  <defs>
    <style>
      .cls-1 {
        fill: #de0212;
      }

      .cls-2 {
        fill: none;
      }

      .cls-3 {
        fill: #070707;
      }
    </style>
  </defs>
  <g>
    <g>
      <path class="cls-1" d="M124.47,70.07c-6.3,8.05-10.83,16.75-11.47,27.66,5.64-4.89,8.08-11.52,13.31-16.13,19.33-17.04,41.26-28.16,66.96-31.6,7.95-1.06,15.82-2.68,23.37-5.54.75-.28,1.51-.86,2.68.05-3.9,6.5-8.59,12.28-14.68,16.97-8.35,6.43-17.71,11.76-23.68,20.84-5.36,8.15-9.92,16.74-12.18,26.32-.42,1.78-1.34,4.63.59,5.36,1.9.71,2.98-2.08,4.11-3.6.97-1.32,1.63-2.88,2.46-4.4,3.44,4.13,2.4,10.41-2.11,15.49-6.35,7.15-15.04,10.79-22.92,15.66-5.4,3.34-10.81,6.68-14.07,12.42-.92,1.61-2.15,3.2-1.83,5.77,2.99-1.6,4.82-4.93,8.69-3.22-2.54,4.86-4.27,10.14-5.44,15.64-2.65,12.51,2.77,24.95,13.85,31.37,3.42,1.98,6.9,3.82,10.59,5.28,4.7,1.87,8.4,5.03,11.19,9.59,2.55-2.23,2.91-5.18,3.07-8,.14-2.5.82-2.6,3.09-2.09,4.12.92,8.28,1,12.48-.45,3.77-1.3,6.35-3.71,7.95-7.08.91-1.91,1.96-2.28,3.87-2.24,8.3.18,19.11,8.33,21.5,16.22.56,1.86-.36,2.68-1.63,3.37-17.01,9.12-34.04,17.89-53.43,21.38-16.13,2.9-31.87,3.16-47.61-1.6-27.74-8.39-49.98-32.95-53.32-63-3.19-28.64,6.8-52.92,23.02-75.22,7.32-10.06,17.86-17.07,27.72-24.57.87-.66,1.84-1.38,3.87-.66ZM116.57,130.5c0,.06,0,.11,0,.17-5.77,0-11.53-.05-17.3.03-2.3.03-7.29,7.27-6.59,9.37.34,1.02,1.24,1.01,2.07,1.04,1.97.05,3.94.09,5.92.09,4.71,0,4.79.03,3,4.17-2.96,6.83-6.16,13.55-9.03,20.41-3.34,7.98-3.23,7.92,5.54,7.98,3.04.02,4.87-.76,6.07-3.82,2.45-6.28,5.82-12.23,7.93-18.61,2.49-7.54,6.21-12.26,14.93-10.16.13.03.28-.01.42,0,2.29.25,3.74-.69,4.47-2.91.48-1.47,1.05-2.94,1.79-4.28,1.54-2.8.21-3.48-2.33-3.47-5.63.01-11.25,0-16.88,0Z"/>
      <path class="cls-1" d="M238.03,161.37c-1.19,1.4-1.93,2.23-2.62,3.1-7.98,10.04-13.97,10.03-25.65,1.47-4.14-3.04-6.73-7.52-8-12.6-.26-1.05-.67-2.39.33-3.18.93-.74,1.8.32,2.66.7,1.41.62,2.8,1.33,4.25,1.84,1.22.42,2.67,1.87,3.78.33.97-1.35,1.22-3.1.07-4.75-1.79-2.58-3.88-4.78-6.53-6.52-4.63-3.04-8.85-6.47-11.3-11.69-2.86-6.1-2.15-12.69,2.33-17.7,3.1-3.46,6.42-6.72,9.58-10.12,1.75-1.88,2.99-2.59,3.93.7.56,1.93,1.2,4.81,3.44,4.73,1.77-.06,2.35-2.94,2.86-4.71,2.07-7.12,2.77-14.3.46-21.59-1.61-5.06-5.12-8.25-10.1-10.77,1.79-1.12,3.14-1.99,4.51-2.83,6.56-4,11.52-9.49,14.66-16.46,4.78-10.61,13.86-16.3,23.67-21.23,2.82-1.42,2.35.64,2.18,2.16-.64,5.57-2.02,11-1.58,16.74.55,7.12,3.43,13.18,6.75,19.29,3.4,6.24,9.41,10.69,11.57,17.74,2.79,9.13,6.36,18.07,4.44,27.97-.64,3.3-.56,6.69,1.3,9.81,2.07-.11,1.97-2.05,2.25-3.09,1.25-4.67,3.83-8.77,5.36-13.3.27-.8.34-1.86,1.37-1.83.89.03,1.33.96,1.69,1.74,2.68,5.79,1.73,11.83,1.31,17.87-.93,13.38-8.28,24.05-14.77,35.01-9.3,15.69-19.82,30.48-34.06,42.24-.87.72-1.74,1.43-2.58,2.18-1.99,1.77-3.48,2.94-4.33-1.1-.5-2.38-2.2-4.53-3.45-6.74-3.43-6.05-3.3-9.68,1.31-14.97,3.44-3.96,6.08-8.31,8.06-13.1.85-2.07,1.42-4.24.84-7.32ZM251.03,112.26c4.28-.25,9.21,1.62,10.51-4.86.44-2.21.4-3.07-2.1-3.03-7.61.1-15.21.06-22.82.04-1.35,0-2.47.18-3.06,1.64-4.45,10.95-8.92,21.88-13.4,32.81-.65,1.58-.33,2.19,1.5,2.42,7.04.89,8.62.04,11.55-6.62.85-1.93,1.9-3.78,2.52-5.78.67-2.16,1.97-2.81,4.08-2.73,2.95.1,5.92.09,8.87,0,2.24-.06,5.41-3.89,5.02-6.17-.49-2.9-2.91-1.36-4.48-1.62-1.51-.25-3.1.06-4.64-.09-1.34-.13-3.75.98-3.57-1.41.14-1.79.66-4.42,3.49-4.57,2.25-.12,4.51-.02,6.54-.02Z"/>
      <path class="cls-3" d="M88.55,249.25c10.86,0,21.72.07,32.58-.05,2.74-.03,3.85.46,3.18,3.53-3.9,17.85-7.72,35.73-11.4,53.62-.51,2.48-1.51,3.2-3.92,3.17-10.43-.11-20.86-.12-31.29,0-3.14.04-3.62-.69-2.21-3.57,6.43-13.15,12.57-26.45,19.06-39.57,1.63-3.29.77-3.66-2.38-3.63-13.54.11-27.08-.03-40.62.1-3.16.03-4-.5-2.7-3.76,3.87-9.79,3.75-9.83,14.33-9.83,8.46,0,16.92,0,25.39,0Z"/>
      <path class="cls-3" d="M197.4,249.25c10.72,0,21.45.08,32.17-.05,2.64-.03,4.23.54,4.83,3.39.7,3.34,4.36,7.06,2.45,9.59-1.58,2.09-6.36.54-9.72.56-11.15.08-22.3.1-33.44-.01-3.25-.03-3.97.61-2.41,3.78,6.46,13.15,12.58,26.47,19.08,39.6,1.63,3.28.51,3.4-2.3,3.37-10.3-.09-20.59-.09-30.89.04-2.69.03-3.91-.63-4.49-3.56-3.5-17.51-7.19-34.98-10.99-52.43-.74-3.39-.08-4.44,3.54-4.37,10.72.22,21.45.08,32.17.08Z"/>
      <path class="cls-1" d="M180.56,155.26c2.59-.74,3.67-2.54,4.58-4.16,1.59-2.85,2.88-2.13,4.21-.02,3.08,4.87,2.92,10.11,1.56,15.45-.21.82-.51,1.61-.78,2.41-.46,1.36-2.02,3.07-.07,4,1.38.66,3.05-.73,3.7-2.08,1.67-3.45,3.51-2.67,5.57-.55,8.47,8.72,7.71,17.2-4.32,21.21-10.68,3.56-21.76,2.72-31.86-3.11-8.47-4.89-13.89-17.01-12.16-26.54.15-.8.08-1.87,1.21-1.89,1.01-.01,1.26,1.02,1.55,1.77,1,2.61,1.86,5.33,4.52,6.79.93.51,1.99,1.37,3.11.48.86-.68.85-1.78.69-2.75-.2-1.24-.42-2.53-.96-3.64-3.95-8.1-3-13.48,3.27-19.76,4.68-4.69,10.57-7.9,15.28-13.22,1.37,4.61,2.05,9.11,4.01,12.95,2.72,5.35-4.09,7.74-3.11,12.62Z"/>
      <path class="cls-1" d="M191.51,84.78c1.7,1.03.42,2.62,2.01,3.38,1.62-3.03,4.43-4.96,6.67-7.44.63-.69,1.04-1.9,2.26-1.5,1.21.4,1.54,1.63,1.65,2.72.26,2.78-.59,5.25-2.51,7.31-1.24,1.33-2.59,2.57-3.79,3.95-.69.78-.75,1.85-.38,2.8.43,1.13,1.22.68,2.06.4,2.62-.88,2.29.57,1.48,2.09-2.75,5.12-6.12,9.71-10.95,13.13-1.5,1.06-2.13.86-2.52-.96-.85-3.97-2.37-7.88-2.63-11.88-.38-5.7,3.28-9.85,6.66-13.99Z"/>
    </g>
    <g>
      <rect class="cls-2" x="120.69" y="285.77" width="43.68" height="14.88"/>
      <path d="M132.71,295.41v3.92h-8.76l4.35-8.16.15-.28c.12-.22.18-.43.18-.65,0-.54-.31-.8-.94-.8-.24,0-.46.09-.64.27-.18.18-.27.4-.27.64,0,.28.12.53.36.75l-1.74,3.1c-.73-.45-1.29-1.02-1.68-1.72s-.59-1.46-.59-2.3c0-1.3.46-2.42,1.38-3.35.92-.93,2.03-1.39,3.34-1.39s2.42.46,3.34,1.38c.92.92,1.38,2.04,1.38,3.36,0,.75-.17,1.46-.51,2.11l-1.61,3.13h2.26Z"/>
      <path d="M134.63,294.04v-2.98c0-1.73.43-3.1,1.3-4.11s2.04-1.51,3.53-1.51,2.67.5,3.53,1.51c.87,1.01,1.3,2.38,1.3,4.11v2.98c0,1.73-.43,3.11-1.3,4.12-.87,1.01-2.05,1.51-3.53,1.51s-2.67-.5-3.53-1.51c-.86-1.01-1.3-2.38-1.3-4.12ZM138.5,290.27v4.57c0,.83.32,1.24.96,1.24s.97-.41.97-1.24v-4.57c0-.83-.32-1.24-.97-1.24s-.96.41-.96,1.24Z"/>
      <path d="M149.64,285.78v3.79h1.67v3.92h-1.67c0,.79.12,1.33.37,1.63s.7.45,1.37.45v3.9c-.19,0-.33.01-.43.01-.84,0-1.63-.2-2.38-.59s-1.34-.92-1.79-1.59c-.57-.85-.85-1.99-.85-3.4v-8.13h3.71Z"/>
      <path d="M156.84,285.78v4.14c.63-.46,1.26-.69,1.89-.69.95,0,1.71.34,2.27,1.03.56.69.84,1.62.84,2.79v6.27h-3.71v-5.23c0-.42-.04-.71-.13-.85s-.26-.22-.52-.22c-.42,0-.63.31-.63.92v5.38h-3.71v-13.55h3.71Z"/>
    </g>
  </g>
  <g>
    <g>
      <rect class="cls-2" x="341.46" y="131.56" width="1706.21" height="112"/>
      <path d="M356.69,138l16.17,6.33h26.72l-3.28-23.91,19.45,1.88c4.06-.47,7.89.2,11.48,1.99,3.59,1.8,6.41,4.57,8.44,8.32.78,1.72.78,3.48,0,5.27-.78,1.8-2.11,3.01-3.98,3.63-1.72.78-3.48.82-5.27.12-1.8-.7-3.09-1.99-3.87-3.87-1.41-4.53-3.91-8.44-7.5-11.72-1.56,1.41-2.27,3.05-2.11,4.92l1.41,13.36h18.05l6.33-7.97c.78-.78,1.64-1.17,2.58-1.17,1.09,0,1.95.39,2.58,1.17l8.44,8.44c1.09.94,1.25,2.11.47,3.52-.47,1.25-1.41,1.88-2.81,1.88h-34.92c1.09,8.59,3.12,17.11,6.09,25.55,2.97-6.41,5.23-13.12,6.8-20.16l14.3,9.14c1.09.63,1.56,1.49,1.41,2.58-.16,1.25-.7,2.11-1.64,2.58-1.72.94-3.05,2.19-3.98,3.75-2.34,6.72-5.55,13.05-9.61,18.98,2.34,4.69,5.7,8.67,10.08,11.95.94.78,2.03,1.05,3.28.82,1.25-.23,2.27-.9,3.05-1.99l11.25-17.81-3.52,20.86c-.47,3.28.16,6.49,1.88,9.61,1.09,2.34,1.01,4.53-.23,6.56-1.41,2.19-3.36,3.28-5.86,3.28-4.69-.31-8.98-1.8-12.89-4.45-6.56-4.69-12.03-10.47-16.41-17.34-10.63,10.94-23.2,18.28-37.73,22.03,12.34-9.22,22.81-20.7,31.41-34.45-5.94-13.44-10-27.26-12.19-41.48h-28.12l.47,17.11h11.02l3.28-4.69c.62-.78,1.33-1.17,2.11-1.17.78-.31,1.48-.16,2.11.47l8.67,7.27c.78.63,1.17,1.41,1.17,2.34,0,.78-.31,1.56-.94,2.34l-2.81,2.81c.16,9.53-1.09,19.06-3.75,28.59-1.09,4.06-3.36,7.19-6.8,9.38-2.5,1.56-5.08,2.74-7.73,3.52-1.09.16-2.15-.08-3.16-.7-1.02-.62-1.68-1.48-1.99-2.58-.78-2.34-2.03-4.3-3.75-5.86-1.72-1.56-3.75-2.58-6.09-3.05-4.38,9.53-10.16,17.97-17.34,25.31,7.03-21.09,10.62-42.66,10.78-64.69l-.94-28.59ZM372.63,172.92c-.63,10.63-3.13,20.94-7.5,30.94h9.61c2.97-.16,4.92-1.64,5.86-4.45,2.19-8.91,3.28-17.73,3.28-26.48h-11.25Z"/>
      <path d="M471.91,139.06h30.7l5.62-6.91c.62-.7,1.41-1.11,2.34-1.23s1.8.1,2.58.64l9.14,8.09c.94.86,1.25,1.92.94,3.16-.63,1.33-1.56,1.99-2.81,1.99h-15.47v46.41c7.66-.86,14.69-2.11,21.09-3.75-11.41,9.38-24.38,16.21-38.91,20.51-2.19.78-4.06,1.99-5.62,3.63-.94.78-1.95,1.09-3.05.94-1.09-.23-1.88-.94-2.34-2.11l-7.03-18.28c7.19.55,14.14.63,20.86.23v-47.58h-16.17l-1.88-5.74ZM512.46,149.84h19.69c.31-9.22.08-18.63-.7-28.24l18.52,5.74c1.09.31,1.64,1.04,1.64,2.17s-.47,1.9-1.41,2.29c-1.25.78-1.88,1.95-1.88,3.52.16,4.14.23,8.99.23,14.53h11.25l3.28-3.87c.62-.7,1.48-1.13,2.58-1.29,1.09-.08,2.03.23,2.81.94l8.2,6.91c.78.63,1.17,1.43,1.17,2.4s-.31,1.78-.94,2.4l-3.28,3.05c.62,18.05-1.17,35.78-5.39,53.2-.94,3.83-2.74,7.11-5.39,9.84-2.66,2.73-5.86,4.73-9.61,5.98-1.56.47-3.05.33-4.45-.41-1.41-.74-2.42-1.82-3.05-3.22-2.81-6.56-7.58-10.98-14.3-13.24,4.53-.23,9.92-.35,16.17-.35,1.72.08,3.32-.41,4.8-1.46,1.48-1.05,2.54-2.52,3.16-4.39,3.44-16.95,4.84-33.79,4.22-50.51h-11.48c-1.09,14.69-4.69,28.71-10.78,42.07-4.06,8.67-9.84,15.8-17.34,21.39s-16.02,9.16-25.55,10.72c15.31-8.75,25.7-21.45,31.17-38.09,3.59-11.87,5.62-23.91,6.09-36.09h-17.34l-2.11-5.98Z"/>
      <path d="M592.99,131.21h79.22l6.8-8.32c.47-.7,1.09-1.05,1.88-1.05.78-.23,1.56,0,2.34.7l10.31,9.61c.94.78,1.09,1.8.47,3.05-.47,1.17-1.33,1.76-2.58,1.76h-33.28l7.03,3.28c.94.47,1.41,1.21,1.41,2.23,0,.94-.55,1.68-1.64,2.23-1.72.63-3.28,1.41-4.69,2.34-3.28,2.58-6.8,5.16-10.55,7.73l2.81,1.64c.78.55,1.25,1.13,1.41,1.76.16.86-.08,1.6-.7,2.23l-2.58,2.93v17.46c0,2.11-.94,3.75-2.81,4.92-2.97,2.11-6.17,2.5-9.61,1.17-1.56-.86-2.34-2.19-2.34-3.98v-19.69c-15.47,9.06-31.8,14.69-48.98,16.88,23.12-10.16,43.36-24.53,60.7-43.12h-52.73l-1.88-5.74ZM619.71,189.45h48.98l3.52-4.45c.62-.94,1.41-1.33,2.34-1.17.94-.08,1.72.27,2.34,1.05l7.5,6.56c1.25,1.09,1.41,2.38.47,3.87l-1.88,2.23v27.07h2.11l5.16-5.86c.47-.78,1.17-1.17,2.11-1.17.94-.23,1.72.04,2.34.82l8.2,7.38c.78.62,1.01,1.52.7,2.7-.16,1.01-.86,1.6-2.11,1.76h-111.8l-2.11-5.62h18.28v-40.2l13.83,5.04ZM619.71,194.84v29.77h7.73v-29.77h-7.73ZM639.87,194.84v29.77h7.73v-29.77h-7.73ZM655.34,155.93c15.94-.16,29.77,5.24,41.48,16.17,2.03,2.34,2.58,4.92,1.64,7.73-1.09,2.97-3.13,4.65-6.09,5.04-3.13.47-5.55-.55-7.27-3.05-7.97-10.78-17.89-19.41-29.77-25.9ZM661.19,194.84v29.77h7.5v-29.77h-7.5Z"/>
      <path d="M753.45,122.53l19.69,7.03c1.09.16,1.64.86,1.64,2.11s-.63,1.95-1.88,2.11c-1.56.47-2.81,1.33-3.75,2.58,15.78,15.78,34.45,26.33,56.02,31.64-7.5,2.66-13.83,6.95-18.98,12.89-16.72-10.47-29.84-24.3-39.38-41.48-7.19,12.03-16.33,22.11-27.42,30.23h35.86l4.45-5.39c.62-.62,1.33-.94,2.11-.94s1.41.31,1.88.94l7.27,7.03c.47.63.62,1.33.47,2.11-.47.94-1.17,1.41-2.11,1.41h-16.64v20.39h4.92l4.92-5.86c.62-.94,1.33-1.41,2.11-1.41,1.09,0,1.88.31,2.34.94l7.03,8.2c.78.63.94,1.33.47,2.11-.31.94-.94,1.33-1.88,1.17h-19.92v23.2h18.05l6.8-7.5c.78-.78,1.72-1.17,2.81-1.17s1.95.39,2.58,1.17l9.38,8.67c.78.78.86,1.72.23,2.81-.31,1.09-1.17,1.64-2.58,1.64h-86.02l-2.58-5.62h35.16v-23.2h-18.98l-2.81-5.16h21.8v-20.39h-19.92l-1.17-2.34c-7.97,5.31-16.48,9.53-25.55,12.66,21.09-16.25,35.62-37.11,43.59-62.58Z"/>
      <path d="M839.6,117.85l14.06,7.73h67.5l2.81-5.16c.47-.94,1.25-1.48,2.34-1.64,1.09-.31,2.07-.16,2.93.47l8.79,7.03c.78.63,1.21,1.37,1.29,2.23.08.86-.2,1.68-.82,2.46l-2.93,3.75v90.47c-.23,2.19-1.25,3.91-3.05,5.16-2.42,1.25-5.04,1.72-7.85,1.41-1.25-.16-2.3-.67-3.16-1.52-.86-.86-1.37-1.99-1.52-3.4v-1.41h-66.33v1.41c-.16,1.88-1.02,3.44-2.58,4.69-2.42,1.56-5,2.03-7.73,1.41-1.09-.16-1.97-.63-2.64-1.41-.66-.78-1.04-1.72-1.11-2.81v-110.86ZM853.66,130.97v16.41l28.94-.7c-.16-1.56-.23-4.14-.23-7.73.08-2.66-.31-5.31-1.17-7.97h-27.54ZM853.66,151.36v48.52c11.95-.94,23.67-3.28,35.16-7.03-6.41,7.66-14.1,13.2-23.09,16.64-1.8.94-3.12,2.34-3.98,4.22-.39,1.41-1.33,2.11-2.81,2.11s-2.42-.78-2.81-2.34l-2.46-9.61v15.94h19.22c7.73-8.28,14.18-17.34,19.34-27.19-3.12-8.28-5.55-16.88-7.27-25.78l-.7.7v19.22c0,1.56-.7,2.74-2.11,3.52-2.11,1.09-4.18,1.49-6.21,1.17-.78,0-1.45-.27-1.99-.82-.55-.55-.78-1.29-.7-2.23v-2.34h-5.16v3.28c-.16,1.56-.86,2.74-2.11,3.52-1.87,1.41-3.83,1.95-5.86,1.64-.86,0-1.62-.35-2.29-1.05-.66-.7-.96-1.44-.88-2.23v-33.05l11.13,4.22h5.16l2.93-4.22c.47-.78,1.21-1.17,2.23-1.17.94-.31,1.72-.08,2.34.7l3.28,3.28c-.62-2.66-1.02-5.86-1.17-9.61l-28.36,1.17-.82-1.17ZM868.08,166.83v14.53h5.16v-14.53h-5.16ZM896.91,201.75c-6.25,7.34-13.48,13.36-21.68,18.05h44.77v-3.05c-1.09,1.09-2.5,1.72-4.22,1.88-1.72.16-3.24-.23-4.57-1.17-5.7-4.37-10.47-9.61-14.3-15.7ZM890.81,130.97l5.39,1.17c.86.16,1.29.7,1.29,1.64.16.94-.2,1.49-1.05,1.64-1.09.94-1.68,2.19-1.76,3.75-.47,2.66-.59,5-.35,7.03l11.02-.23,1.17-1.41c-2.34-.78-3.71-2.34-4.1-4.69-.78-3.28-2.23-6.25-4.34-8.91h-7.27ZM894.45,150.89c.23,8.91,1.84,17.5,4.8,25.78,2.5-7.19,4.38-14.77,5.62-22.73l11.95,8.2c.86.47,1.21,1.17,1.05,2.11-.08.78-.62,1.41-1.64,1.88-1.56.47-2.54,1.56-2.93,3.28-1.72,7.34-4.49,14.3-8.32,20.86,1.02,2.66,2.54,5.24,4.57,7.73.47.63.98.86,1.52.7.86-.16,1.29-.62,1.29-1.41l2.11-14.53c.86,8.59,2.7,16.8,5.51,24.61v-58.12c-.23.63-.74.94-1.52.94l-24.02.7ZM906.4,130.97c3.05.16,5.66,1.33,7.85,3.52,1.25,2.03,1.52,4.06.82,6.09l4.92,4.92v-14.53h-13.59Z"/>
      <path d="M959.04,160.27h38.67v-38.44l19.69,3.75c1.25.16,2.03.86,2.34,2.11.16,1.25-.31,2.19-1.41,2.81-2.03,1.25-3.2,3.05-3.52,5.39v24.38h24.61l7.5-9.61c.78-.94,1.64-1.44,2.58-1.52.94-.08,1.88.27,2.81,1.05l10.55,9.84c1.09.94,1.33,2.15.7,3.63-.63,1.49-1.64,2.23-3.05,2.23h-44.77c4.06,12.03,10.66,22.34,19.8,30.94,9.14,8.59,19.88,14.53,32.23,17.81-7.5,3.59-14.45,7.89-20.86,12.89-8.91-6.25-16.25-13.79-22.03-22.62-5.78-8.83-9.84-18.55-12.19-29.18-2.5,14.38-9.06,26.6-19.69,36.68-10.63,10.08-23.2,15.9-37.73,17.46,12.66-5.78,22.81-14.41,30.47-25.9,7.66-11.48,11.64-24.18,11.95-38.09h-36.56l-2.11-5.62Z"/>
      <path d="M1079.77,192.38h63.98v-7.73l14.41,2.11c.94.16,1.52.78,1.76,1.88.23.94.04,1.8-.59,2.58l-1.17,1.17h12.89l2.23-3.05c-2.58.16-4.61-.78-6.09-2.81-1.56-2.34-3.36-4.3-5.39-5.86-18.83,3.75-38.28,6.25-58.36,7.5-1.41,0-2.34.7-2.81,2.11-.55,1.09-1.33,1.64-2.34,1.64-1.17,0-2.03-.47-2.58-1.41l-4.45-11.72c10.23.47,21.52.47,33.87,0v-7.5h-14.77c.16,2.34-.82,3.91-2.93,4.69-2.42.63-5,.86-7.73.7-.86-.16-1.58-.55-2.17-1.17-.59-.62-.88-1.41-.88-2.34v-34.92l13.71,4.92h14.77v-6.09h-36.56l-3.05-5.39h39.61v-11.72l14.3,2.11c1.33.16,2.11.86,2.34,2.11.39,1.25.04,2.27-1.05,3.05l-2.11,1.64v2.81h19.8l5.62-6.33c.7-.94,1.7-1.41,2.99-1.41s2.32.39,3.11,1.17l6.68,7.27c.86.78,1.09,1.8.7,3.05-.55,1.09-1.41,1.64-2.58,1.64h-36.33v6.09h15.94l3.63-3.98c1.64-1.88,3.52-2.19,5.62-.94l8.2,6.33c.78.63,1.21,1.37,1.29,2.23.08.86-.2,1.68-.82,2.46l-3.52,3.05v16.88c-.39,2.03-1.33,3.52-2.81,4.45,3.36,1.09,6.45,2.5,9.26,4.22,1.56.94,2.54,2.27,2.93,3.98.39,1.72.04,3.36-1.05,4.92.86,0,1.56.23,2.11.7l6.33,5.39c1.09.94,1.44,2.03,1.05,3.28-.63,1.41-1.56,2.11-2.81,2.11h-25.78v20.39c-.08,3.59-1.41,6.68-3.98,9.26s-5.62,3.87-9.14,3.87c-2.03,0-3.36-1.02-3.98-3.05-.86-1.56-1.76-2.81-2.7-3.75l-10.66-8.91,13.01-.23c1.88-.16,2.89-1.17,3.05-3.05v-14.53h-61.17l-2.81-5.86ZM1105.67,198.47c4.22,0,8.16,1.02,11.84,3.05,3.67,2.03,6.68,4.77,9.02,8.2,1.48,2.97,1.13,5.7-1.05,8.2-1.95,2.5-4.57,3.28-7.85,2.34-3.13-.94-4.88-2.97-5.27-6.09-.7-5.62-2.93-10.86-6.68-15.7ZM1110.35,149.25v5.39h14.77v-5.39h-14.77ZM1110.35,160.03v4.92h14.77v-4.92h-14.77ZM1138.6,149.25v5.39h15.94v-5.39h-15.94ZM1138.6,160.03v4.92h15.94v-4.92h-15.94ZM1138.6,171.28v7.03c6.56-.47,12.54-.94,17.93-1.41-3.67-2.34-7.58-3.75-11.72-4.22,3.36-.62,6.6-.94,9.73-.94v-.47h-15.94Z"/>
      <path d="M1200.38,119.49l14.65,6.8h8.32l.94-3.75c.23-.94.82-1.6,1.76-1.99,1.17-.23,2.07-.04,2.7.59l9.49,6.68c1.01.86,1.41,1.88,1.17,3.05-.16,1.33-.86,2.19-2.11,2.58l-3.05,1.29-12.3,17.93c-.78,1.41-.51,2.66.82,3.75,5.08,3.44,8.98,7.77,11.72,13.01,3.44,6.72,4.26,13.79,2.46,21.21-.86,3.75-2.62,7.03-5.27,9.84-1.88,1.88-4.06,2.58-6.56,2.11-2.58-.39-4.42-1.8-5.51-4.22-.94-2.03-2.46-3.87-4.57-5.51v30.94c-.16,1.88-1.02,3.28-2.58,4.22-2.5,1.48-5.27,2.15-8.32,1.99-.94,0-1.78-.35-2.52-1.05-.74-.7-1.15-1.52-1.23-2.46v-106.99ZM1215.03,132.03v57.3c4.14.16,7.27-1.6,9.38-5.27,1.17-2.89,1.68-6.01,1.52-9.38-.7-6.25-3.28-11.84-7.73-16.76-1.33-1.48-1.76-3.28-1.29-5.39l5.04-20.51h-6.91ZM1238.82,179.14h47.93l5.39-6.68c.7-.78,1.56-1.17,2.58-1.17s1.83.31,2.46.94l7.27,6.56c1.09,1.09,1.41,2.31.94,3.63-.47,1.49-1.49,2.31-3.05,2.46h-17.93v27.54c0,1.56.62,2.66,1.88,3.28,1.17.78,2.44,1.09,3.81.94,1.37-.16,2.56-.74,3.57-1.76,1.17-1.41,1.95-3.01,2.34-4.8l2.46-24.02,5.27,20.51c.7,2.81,2.11,5.24,4.22,7.27,1.88,1.88,2.23,4.02,1.05,6.45-2.97,4.76-7.23,7.85-12.77,9.26-6.41,1.33-12.81,1.09-19.22-.7-3.75-1.64-5.82-4.49-6.21-8.55v-35.39h-5.62c-.31,12.03-4.61,22.6-12.89,31.7-8.28,9.1-18.44,14.32-30.47,15.64,8.91-4.69,15.94-11.25,21.09-19.69s7.77-17.66,7.85-27.66h-9.96l-1.99-5.74ZM1259.79,138v-17.11l15.82,3.4c1.17.16,2.07.82,2.7,1.99.55,1.25.47,2.38-.23,3.4l-1.29,1.41c-.39.55-.59,1.13-.59,1.76v5.16h13.83l1.17-5.74c.16-.7.57-1.17,1.23-1.41.66-.23,1.27-.16,1.82.23l13.12,8.79c1.72,1.09,2.23,2.56,1.52,4.39-.7,1.84-2.03,2.68-3.98,2.52-2.19,0-4.22.35-6.09,1.05l-13.01,7.03,2.81-10.78h-39.96c.62,5.08-.86,9.45-4.45,13.12-1.41,1.41-3.07,2.11-4.98,2.11s-3.54-.7-4.86-2.11c-1.49-1.25-2.27-2.85-2.34-4.8-.08-1.95.55-3.67,1.88-5.16,4.45-5.23,6.91-11.41,7.38-18.52,3.52,2.27,5.78,5.35,6.8,9.26h11.72ZM1242.33,160.27h31.52l5.74-6.68c.39-.86,1.05-1.21,1.99-1.05.94-.16,1.68.2,2.23,1.05l7.97,7.27c1.09.7,1.33,1.6.7,2.7-.23,1.17-.98,1.76-2.23,1.76h-46.05l-1.88-5.04Z"/>
      <path d="M1337.28,120.42l13.36,3.05c.78.31,1.41.86,1.88,1.64.31.78.31,1.56,0,2.34l-1.41,2.81v16.17l3.75-5.39c.47-.78,1.13-1.17,1.99-1.17s1.6.31,2.23.94l5.16,6.56c.47.94.55,1.95.23,3.05-.63,1.09-1.49,1.64-2.58,1.64h-10.78v7.5c3.59.31,6.68,1.72,9.26,4.22,2.58,2.5,4.1,5.55,4.57,9.14.47,2.81-.43,5-2.7,6.56-2.27,1.56-4.57,1.64-6.91.23-2.34-1.25-3.44-3.36-3.28-6.33.47-2.97.16-5.78-.94-8.44v61.17c-.16,1.72-1.02,2.97-2.58,3.75-2.66,1.09-5.31,1.64-7.97,1.64-.94-.16-1.72-.55-2.34-1.17s-.94-1.41-.94-2.34v-39.61c-4.22,8.91-10.47,15.94-18.75,21.09,10.62-17.81,16.88-36.95,18.75-57.42h-14.3l-1.88-5.62h16.17v-26.02ZM1402.9,167.06l14.77,8.91c1.09.94,1.64,2.11,1.64,3.52-.16,1.41-.78,2.34-1.88,2.81-2.81,1.41-4.92,3.52-6.33,6.33-2.03,5-4.61,9.61-7.73,13.83,9.38,9.22,20.47,15.08,33.28,17.58-6.41,3.12-12.11,7.27-17.11,12.42-9.38-5.31-17.19-12.5-23.44-21.56-12.03,12.03-26.56,18.44-43.59,19.22,15.31-6.72,27.73-17.03,37.27-30.94-2.66-6.56-4.45-13.59-5.39-21.09-3.91,6.88-6.17,14.22-6.8,22.03-.31,1.09-1.17,1.8-2.58,2.11-1.09.16-1.95-.31-2.58-1.41l-7.73-14.06c6.41-2.66,11.87-6.8,16.41-12.42.94-1.25,1.72-2.66,2.34-4.22.62-1.25,1.64-1.56,3.05-.94.47.16.82.51,1.05,1.05.23.55.27,1.05.12,1.52-.47,1.72-.63,3.44-.47,5.16,1.88,5.31,4.22,10.16,7.03,14.53,4.22-7.5,7.11-15.62,8.67-24.38ZM1387.2,119.25l17.11,3.52c1.25.16,1.99.82,2.23,1.99s-.04,2.15-.82,2.93l-2.81,2.11v12.42h10.08l6.09-7.73c.62-.94,1.41-1.41,2.34-1.41s1.8.39,2.58,1.17l7.97,7.5c.94,1.09,1.09,2.34.47,3.75-.63,1.25-1.72,1.8-3.28,1.64h-63.05l-2.34-4.92h23.44v-22.97ZM1376.42,148.08l14.3,4.92c1.25.47,1.8,1.41,1.64,2.81.16,1.25-.47,2.19-1.88,2.81-2.5,1.09-4.53,2.74-6.09,4.92-4.69,8.44-11.56,13.91-20.62,16.41,6.72-9.69,10.94-20.31,12.66-31.88ZM1399.86,149.72c5.78-.62,11.25.27,16.41,2.7,5.16,2.42,9.38,6.06,12.66,10.9,1.72,2.66,1.72,5.31,0,7.97-1.72,2.66-4.06,3.75-7.03,3.28-3.13-.47-5.08-2.19-5.86-5.16-.94-4.53-2.81-8.51-5.62-11.95-2.81-3.44-6.33-6.01-10.55-7.73Z"/>
      <path d="M1452.26,127.34l14.53,5.39h61.17l3.98-6.91c.62-.86,1.33-1.29,2.11-1.29.78-.23,1.56,0,2.34.7l9.61,7.38c.62.47.94,1.11.94,1.93s-.23,1.46-.7,1.93l-3.75,4.34v76.17c-.16,1.64-.7,2.89-1.64,3.75-2.97,2.66-6.33,3.44-10.08,2.34-1.88-.47-2.81-1.68-2.81-3.63v-3.87h-61.17v5.62c-.16,2.34-1.17,3.87-3.05,4.57-2.97,1.17-5.86,1.72-8.67,1.64-1.72-.31-2.66-1.25-2.81-2.81v-97.27ZM1466.79,138.12v31.29h22.03v-31.29h-22.03ZM1466.79,175.39v34.22h22.03v-34.22h-22.03ZM1504.53,138.12v31.29h23.44v-31.29h-23.44ZM1504.53,175.39v34.22h23.44v-34.22h-23.44Z"/>
      <path d="M1595.37,145.03l14.3,8.44c.94,1.09,1.33,2.19,1.17,3.28-.16,1.41-.78,2.34-1.88,2.81-2.03.78-3.59,1.95-4.69,3.52-1.72,2.81-3.52,5.47-5.39,7.97l3.05,1.41c.78.47,1.17,1.25,1.17,2.34s-.47,1.8-1.41,2.11c-.94.47-1.49,1.33-1.64,2.58v45.94c-.16,2.19-1.25,3.75-3.28,4.69-2.66,1.09-5.62,1.41-8.91.94-1.72-.63-2.58-1.8-2.58-3.52v-42.89c-6.41,4.84-13.44,8.67-21.09,11.48,14.69-14.22,25.08-31.25,31.17-51.09ZM1592.09,119.96l14.77,9.38c1.09.63,1.56,1.56,1.41,2.81-.16,1.41-.94,2.19-2.34,2.34-1.56.31-2.97.94-4.22,1.88-10.16,10.31-22.42,17.42-36.8,21.33,11.72-10.62,20.78-23.2,27.19-37.73ZM1611.78,192.14h39.84l7.5-7.5c-2.81-1.25-4.3-3.44-4.45-6.56,0-6.72-2.74-12.03-8.2-15.94,1.09-.31,2.5-.39,4.22-.23,3.44-7.34,6.09-15.55,7.97-24.61l13.36,7.5c1.09.63,1.48,1.49,1.17,2.58-.16,1.25-.86,1.88-2.11,1.88-1.72.16-3.13.7-4.22,1.64-3.91,3.28-7.89,7.19-11.95,11.72,6.87,2.03,11.48,6.33,13.83,12.89.78,2.34.47,4.53-.94,6.56-1.41,1.88-3.36,2.89-5.86,3.05l8.2,7.73c.94.94,1.17,1.95.7,3.05-.63,1.09-1.56,1.64-2.81,1.64h-21.8v25.55h11.72l6.09-7.73c.62-.62,1.41-.94,2.34-.94.94-.16,1.72.16,2.34.94l8.67,8.44c1.09.78,1.33,1.8.7,3.05-.31,1.25-1.09,1.88-2.34,1.88h-71.72l-1.88-5.62h28.83v-25.55h-17.11l-2.11-5.39ZM1609.44,131.21h43.36l7.03-7.73c.62-.78,1.41-1.09,2.34-.94.94-.16,1.72.16,2.34.94l7.97,8.67c.94.78,1.09,1.72.47,2.81-.16,1.09-.86,1.64-2.11,1.64h-59.06l-2.34-5.39ZM1613.42,163.31c2.81-8.12,4.14-16.41,3.98-24.84l17.34,6.33c1.25.31,1.8,1.17,1.64,2.58-.16,1.41-.86,2.11-2.11,2.11-1.72.16-3.28.78-4.69,1.88-4.22,4.06-7.73,8.44-10.55,13.12,3.44,1.25,6.29,3.36,8.55,6.33,2.26,2.97,3.48,6.33,3.63,10.08.31,2.03-.23,3.83-1.64,5.39-1.41,1.56-3.13,2.42-5.16,2.58-2.03.16-3.83-.47-5.39-1.88-1.56-1.41-2.42-3.12-2.58-5.16-.16-7.03-2.5-13.12-7.03-18.28,1.09-.31,2.42-.39,3.98-.23ZM1639.2,137.53l14.06,8.2c.78.47,1.09,1.09.94,1.88-.16,1.09-.63,1.72-1.41,1.88-1.09.31-1.95.78-2.58,1.41l-12.19,13.12c3.59,1.09,6.52,3.09,8.79,5.98,2.26,2.89,3.55,6.21,3.87,9.96.16,1.88-.39,3.56-1.64,5.04-1.25,1.49-2.81,2.31-4.69,2.46-1.88.16-3.59-.39-5.16-1.64-1.56-1.25-2.34-2.81-2.34-4.69.16-7.19-2.58-13.12-8.2-17.81,2.03-.31,3.91-.39,5.62-.23,2.81-8.28,4.45-16.8,4.92-25.55Z"/>
      <path d="M1708.72,117.38l14.3,6.91c.94.47,1.41,1.17,1.41,2.11.16.94-.16,1.76-.94,2.46l-1.64,1.29c4.06-.47,7.81.55,11.25,3.05,3.44,2.5,5.47,5.78,6.09,9.84.31,1.88-.16,3.59-1.41,5.16-1.25,1.56-2.74,2.5-4.45,2.81-1.88.23-3.59-.25-5.16-1.46-1.56-1.21-2.5-2.71-2.81-4.51-.47-4.53-2.27-8.48-5.39-11.84-3.44,8.28-8.2,15.94-14.3,22.97h13.36l3.05-4.22c.31-.47.78-.78,1.41-.94.62-.16,1.25,0,1.88.47l6.33,5.86c.62.78.78,1.64.47,2.58-.47.86-1.17,1.29-2.11,1.29h-7.5v11.95h2.34l3.75-5.39c.47-.55,1.09-.9,1.88-1.05.94,0,1.64.23,2.11.7l6.33,6.68c.62.94.7,1.84.23,2.7-.47.86-1.17,1.37-2.11,1.52h-14.53v21.33c2.19-6.48,3.44-13.05,3.75-19.69l13.83,5.86v-9.02l13.36,5.39h8.2v-14.06h-5.16v1.88c-.16,1.09-.63,1.95-1.41,2.58-2.81,2.19-5.94,3.05-9.38,2.58-1.41-.23-2.27-1.17-2.58-2.81v-41.13l13.12,5.16c.94-6.01,1.17-12.11.7-18.28l14.77,5.86c.94.63,1.33,1.56,1.17,2.81-.31,1.17-1.09,1.88-2.34,2.11-4.22,1.17-7.34,3.75-9.38,7.73h18.98l3.05-4.8c.47-.62,1.09-1.01,1.88-1.17.78-.08,1.56.12,2.34.59l7.97,6.56c.78.47,1.17,1.17,1.17,2.11,0,.78-.31,1.45-.94,1.99l-2.34,1.99v23.67c.31,1.41-.08,2.54-1.17,3.4-2.81,2.27-6.02,3.01-9.61,2.23-1.56-.39-2.34-1.37-2.34-2.93v-2.11h-4.92v14.06h10.31l3.52-4.69c.78-1.09,1.88-1.37,3.28-.82l8.44,4.34c.78.39,1.17.9,1.17,1.52.16.78,0,1.45-.47,1.99l-1.88,1.88v29.18c0,2.74-1.02,5-3.05,6.8-1.72,1.33-3.75,1.99-6.09,1.99-1.56.16-2.97-.29-4.22-1.35-1.25-1.05-2.03-2.32-2.34-3.81-.78-2.66-2.42-4.69-4.92-6.09l-3.75-1.52v15.35c-.16,1.56-.7,2.89-1.64,3.98-2.81,2.26-5.94,3.01-9.38,2.23-1.72-.55-2.58-1.72-2.58-3.52v-42.07h-8.2v30c0,1.72-.63,3.09-1.88,4.1-2.5,2.26-5.47,3.01-8.91,2.23-1.72-.63-2.58-1.8-2.58-3.52v-31.52c-1.41.86-2.66,2.03-3.75,3.52-3.59,6.41-8.13,12.46-13.59,18.16,6.41-.86,12.11-1.91,17.11-3.16-13.75,6.49-26.17,13.63-37.27,21.45-.94.47-2.03.59-3.28.35-1.09-.55-1.88-1.29-2.34-2.23l-6.33-15.47c6.56.39,12.97.47,19.22.23v-33.4h-16.64l-1.88-5.16h18.52v-11.95h-8.91c-4.69,4.69-10,8.79-15.94,12.3,12.03-16.88,19.92-35.58,23.67-56.13ZM1690.91,181.48c4.84.47,9.02,2.46,12.54,5.98s5.51,7.73,5.98,12.66c.16,1.72-.39,3.28-1.64,4.69-1.25,1.41-2.74,2.15-4.45,2.23-1.72.16-3.28-.35-4.69-1.52s-2.11-2.66-2.11-4.45c0-7.03-1.88-13.55-5.62-19.57ZM1756.53,141.4v7.85h23.67v-7.85h-23.67ZM1756.53,154.64v7.73h23.67v-7.73h-23.67ZM1775.28,187.57v22.27h7.27c.94,0,1.72-.33,2.34-1,.62-.66.94-1.42.94-2.29v-18.98h-10.55Z"/>
      <path d="M1811.4,146.21h16.88v-25.08l12.19,2.34c.86.16,1.37.7,1.52,1.64.23.94,0,1.64-.7,2.11-.63,1.09-.98,2.03-1.05,2.81v13.59l2.46-2.81c.39-.62,1.01-.94,1.88-.94.7,0,1.33.31,1.88.94l6.21,5.62c.86.78,1.05,1.72.59,2.81-.23.94-.98,1.49-2.23,1.64h-10.78v9.14c3.98.47,7.36,2.19,10.14,5.16,2.77,2.97,4.24,6.49,4.39,10.55.08,1.56-.45,2.97-1.58,4.22-1.13,1.25-2.52,1.95-4.16,2.11-1.72.16-3.18-.31-4.39-1.41-1.21-1.09-1.93-2.5-2.17-4.22.23-4.06-.51-8.05-2.23-11.95v61.41c-.08,1.41-.63,2.58-1.64,3.52-2.03,1.72-4.38,2.34-7.03,1.88-1.8-.16-2.89-1.25-3.28-3.28v-40.78c-4.53,9.38-10.86,17.27-18.98,23.67,9.69-18.91,15.47-38.91,17.34-60h-13.36l-1.88-4.69ZM1849.25,191.67h52.38l5.86-6.8c.7-.62,1.48-.94,2.34-.94s1.6.31,2.23.94l7.85,6.8c.78.94.94,1.95.47,3.05-.39,1.09-1.21,1.72-2.46,1.88h-27.07v21.8c-.23,3.28-1.58,6.09-4.04,8.44s-5.33,3.59-8.61,3.75c-2.34-.16-4.02-1.33-5.04-3.52-2.5-4.38-6.21-7.42-11.13-9.14-5.24,4.22-11.13,7.42-17.7,9.61,7.5-8.44,12.69-18.44,15.59-30l12.3,7.5c.94.47,1.41,1.21,1.41,2.23s-.51,1.76-1.52,2.23c-1.09.63-1.88,1.09-2.34,1.41-1.56,1.72-3.52,3.67-5.86,5.86h11.6c.62,0,1.17-.23,1.64-.7.55-.62.74-1.25.59-1.88v-17.58h-26.48l-1.99-4.92ZM1866.01,143.39h4.22v-11.02h-17.34l-1.88-4.69h48.28l6.33-6.8c.55-.78,1.27-1.17,2.17-1.17s1.66.31,2.29.94l8.55,6.33c.94.94,1.25,2.03.94,3.28-.39,1.25-1.25,1.95-2.58,2.11h-21.56v11.02h5.39l2.46-3.98c.39-.62,1.05-1.09,1.99-1.41.7,0,1.44.23,2.23.7l7.38,4.92c.78.63,1.17,1.41,1.17,2.34s-.35,1.72-1.05,2.34l-2.11,2.34v16.17c-.16,1.72-.86,3.05-2.11,3.98-1.88,1.41-4.06,1.95-6.56,1.64-2.11-.31-3.24-1.48-3.4-3.52v-1.17h-34.8v2.34c0,1.56-.63,2.74-1.88,3.52-2.03,1.41-4.1,1.95-6.21,1.64-1.56-.16-2.46-1.09-2.7-2.81v-32.58l10.78,3.52ZM1862.73,179.25h28.12l4.45-5.62c1.17-1.41,2.5-1.56,3.98-.47l7.73,5.86c1.09.78,1.44,1.72,1.05,2.81-.23,1.25-1.05,1.95-2.46,2.11h-41.13l-1.76-4.69ZM1866.01,148.08v14.77h4.22v-14.77h-4.22ZM1880.66,132.38v11.02h3.98v-11.02h-3.98ZM1880.66,148.08v14.77h3.98v-14.77h-3.98ZM1892.02,201.52c5.39-.47,10.51.35,15.35,2.46,4.84,2.11,8.91,5.35,12.19,9.73,1.64,2.66,1.68,5.39.12,8.2-1.64,2.66-3.98,3.91-7.03,3.75-3.2-.16-5.43-1.64-6.68-4.45-3.28-7.5-7.93-14.06-13.95-19.69ZM1895.42,148.08v14.77h5.39v-14.77h-5.39Z"/>
      <path d="M1931.89,158.28h32.11v-4.69h-18.52l-1.88-4.45h20.39v-4.22h-13.83c-1.88,2.89-4.45,4.12-7.73,3.69-3.28-.43-5.39-2.25-6.33-5.45-1.25-3.05-.63-5.74,1.88-8.09,3.44-3.91,4.92-8.51,4.45-13.83,3.12,1.88,5.62,4.38,7.5,7.5h27.66v-11.48l17.81,2.34c1.09.16,1.8.74,2.11,1.76.31,1.09.08,1.99-.7,2.7l-1.88,2.23v2.46h27.19l1.17-2.93c.31-.94.94-1.52,1.88-1.76.94-.31,1.8-.23,2.58.23l13.12,7.27c1.25.7,1.72,1.72,1.41,3.05-.31,1.33-1.17,1.99-2.58,1.99h-5.62l-11.48,3.05,1.88,1.88c.62.55.78,1.29.47,2.23-.47.78-1.09,1.17-1.88,1.17h-4.69l5.62,5.04c.78.55.94,1.25.47,2.11-.31,1.02-.94,1.52-1.88,1.52h-17.58v4.69h17.58l4.22-5.86c.47-.86,1.17-1.37,2.11-1.52,1.09-.08,2.03.2,2.81.82l7.5,7.15c.94.86,1.13,1.86.59,2.99-.55,1.13-1.45,1.7-2.7,1.7h-28.36c11.25,5.24,23.2,8.09,35.86,8.55-5,2.97-8.67,7.19-11.02,12.66-4.22-.23-8.36-1.25-12.42-3.05l-1.17,1.52v25.55c-.16,1.72-.94,3.01-2.34,3.87-1.09.55-2.19.9-3.28,1.05,4.53,1.09,8.83,2.81,12.89,5.16,2.81,1.72,4.06,4.14,3.75,7.27,0,1.56-.51,2.93-1.52,4.1-1.02,1.17-2.15,2.03-3.4,2.58-3.13,1.09-5.86.47-8.2-1.88-7.03-7.97-15.7-14.14-26.02-18.52,4.53-.62,9.06-.74,13.59-.35-.31-.39-.47-.74-.47-1.05h-33.28l11.25,5.86c.78.47,1.09,1.25.94,2.34-.16,1.02-.7,1.64-1.64,1.88l-3.28.82c-13.75,7.58-28.44,10.16-44.06,7.73,11.25-2.11,21.01-6.99,29.3-14.65-2.19.78-4.3,1.05-6.33.82-1.25-.08-2.38-.6-3.4-1.58-1.02-.98-1.52-2.09-1.52-3.34v-30.59c-7.5,3.13-14.92,5.04-22.27,5.74,10.78-5.31,19.45-12.81,26.02-22.5h-22.97l-1.88-5.27ZM1964,134.37h-12.19c.31,1.88.31,3.79,0,5.74h12.19v-5.74ZM2004.78,175.15l2.81-2.7c-2.66-2.81-4.84-5.78-6.56-8.91h-26.02c-2.97,3.52-6.33,6.64-10.08,9.38l2.11,2.23h37.73ZM1967.28,180.31v5.04h37.73v-5.04h-37.73ZM1967.28,190.5v5.04h37.73v-5.04h-37.73ZM1967.28,200.7v4.45h37.73v-4.45h-37.73ZM1990.95,134.37h-15.94l6.09.7c.78,0,1.25.43,1.41,1.29.31.78.08,1.41-.7,1.88l-1.88,1.88h11.02v-5.74ZM1979,144.92v4.22h11.95v-4.22h-11.95ZM1979,153.59v4.69h11.95v-4.69h-11.95ZM1999.16,134.37l6.8.7c.78,0,1.25.39,1.41,1.17.16.78-.08,1.37-.7,1.76l-1.64,1.17v.94h4.22l3.98-4.45c1.41-1.33,2.89-1.48,4.45-.47l1.41,1.17.7-1.99h-20.62ZM2005.02,144.92v4.22h4.45l3.98-4.22h-8.44Z"/>
    </g>
    <g>
      <rect class="cls-2" x="345.46" y="262.13" width="1699.66" height="46.04"/>
      <path d="M369.88,289.29c0,.36-.04.9-.12,1.62s-.12,1.27-.12,1.64,0,.96-.02,1.77-.02,1.4-.02,1.79-.26.59-.77.59c-.19,0-.92-.15-2.2-.45-1.42-.31-4.08-.47-7.97-.47-1.2,0-3.01.07-5.41.2s-4.2.2-5.37.2c-.41,0-.63-.2-.68-.59-.05-.53-.16-1.32-.35-2.37-.39-1.59-.59-2.51-.59-2.74,0-.34.66-.6,1.97-.77,1.53-.2,2.52-.48,2.95-.84,1.58-1.33,3.2-3.01,4.85-5.04,2.11-2.56,3.16-4.48,3.16-5.77,0-1.11-.4-2.04-1.21-2.8s-1.76-1.14-2.87-1.14c-1.25,0-2.49.25-3.73.75-.83.31-1.7.77-2.6,1.36-.77.48-1.19.73-1.27.73-.53,0-.8-.62-.8-1.88,0-.97-.04-1.67-.12-2.11-.03-.2-.15-.62-.35-1.27-.19-.55-.28-.95-.28-1.22,0-.2.13-.4.4-.59,1.3-.92,3.03-1.65,5.2-2.18,1.94-.47,3.82-.7,5.65-.7,2.97,0,5.45.66,7.45,1.97,2.36,1.53,3.54,3.71,3.54,6.54,0,3.77-2.85,8.16-8.55,13.2,4.05-.2,7.22-.3,9.52-.3.47,0,.7.29.7.87Z"/>
      <path d="M399.37,281.81c0,4.03-1.3,7.49-3.91,10.38-2.7,3-6.05,4.5-10.05,4.5s-7.34-1.5-10.03-4.5c-2.62-2.89-3.94-6.35-3.94-10.38s1.31-7.5,3.94-10.36c2.69-2.95,6.03-4.43,10.03-4.43s7.34,1.48,10.03,4.43c2.62,2.88,3.94,6.33,3.94,10.36ZM390.67,281.81c0-1.61-.47-3.01-1.41-4.2-1-1.27-2.29-1.9-3.87-1.9s-2.91.62-3.89,1.88c-.92,1.16-1.38,2.56-1.38,4.22s.46,3.04,1.38,4.24c1,1.3,2.3,1.95,3.89,1.95s2.81-.66,3.84-1.99c.95-1.22,1.43-2.62,1.43-4.2Z"/>
      <path d="M410.82,275.98c0,.27-.03.69-.1,1.24s-.1.96-.1,1.22-.03.43-.08.5c-.05.07-.21.18-.45.31-1.17.65-2.48.97-3.91.97-2.63,0-3.95-1.01-3.95-3.02,0-.6.02-1.51.07-2.71s.07-2.11.07-2.71c0-.4-.23-.6-.7-.6h-.18c-.08,0-.14.01-.18.01-.35,0-.52-.12-.52-.37,0-.15.01-.37.03-.67.02-.3.03-.52.03-.67,0-.19-.01-.48-.03-.87-.02-.39-.03-.68-.03-.88s.29-.28.87-.3c.33,0,.51-.1.53-.27.05-.35.07-.89.05-1.64-.04-1.17-.05-1.74-.05-1.68,0-1.06.1-1.58.3-1.58.25,0,.6.05,1.05.16.52.12.88.19,1.08.21.46.06,1.17.15,2.1.26.23.02.34.1.34.23,0,.36-.03.92-.09,1.65-.06.74-.09,1.29-.09,1.67,0,.45.13.67.4.67.32,0,.8-.01,1.45-.04s1.13-.04,1.46-.04c.2,0,.3.07.3.2,0,.21-.02.52-.07.94s-.07.73-.07.94,0,.54.01.96.01.74.01.96c0,.19-.13.29-.4.29-.18,0-.49,0-.92-.02-.43-.01-.73-.02-.92-.02h-1.03c-.14,0-.21.2-.21.6v.97c0,.44.01.76.01.97,0,.76.09,1.29.26,1.58.25.39.73.59,1.45.59.23,0,.55-.05.98-.16.42-.1.72-.16.89-.16.19,0,.29.1.29.3Z"/>
      <path d="M425.89,270.08l-.03,9.43c0,.32-.13.5-.38.53-.29.04-.96.05-2,.05s-1.7-.04-2.09-.11c-.3-.05-.45-.25-.45-.59,0-.78.01-1.96.04-3.54.03-1.58.04-2.75.04-3.54,0-1.07-.54-1.6-1.63-1.6-.36,0-.79.15-1.28.44-.54.32-.81.65-.81,1v3.38c0,.44,0,1.09.03,1.97.02.88.03,1.54.03,1.97,0,.34-.14.52-.42.56-.28.04-1.08.05-2.38.05-.75,0-1.28-.04-1.61-.11s-.49-.23-.49-.48c0-.72,0-1.8.01-3.25,0-1.44.01-2.53.01-3.25,0-2.98-.03-5.44-.1-7.39-.03-.68-.05-1.37-.07-2.05-.05-.79-.13-1.47-.25-2.04-.03-.12-.04-.21-.04-.26,0-.14.07-.23.21-.27.28-.08.7-.13,1.24-.15.73-.03,1.15-.05,1.27-.07l2.47-.29c.15,0,.22.1.22.29,0,.29-.02.69-.05,1.19-.04.58-.05.98-.05,1.19-.05,2.06-.08,3.68-.08,4.88,0,.18.05.27.14.27.02,0,.25-.16.7-.48.53-.37,1.03-.67,1.52-.89.72-.32,1.42-.48,2.09-.48,1.17,0,2.14.31,2.92.92.85.66,1.27,1.55,1.27,2.69Z"/>
      <path d="M470.09,263.81c0,1.78-.07,4.46-.22,8.03s-.22,6.25-.22,8.05v15.45c0,.42-.23.63-.68.63-.38,0-.94.02-1.7.05s-1.32.05-1.7.05c-.41,0-1.02-.03-1.83-.09s-1.42-.09-1.83-.09c-.28,0-.62-.26-1.01-.77-1.12-1.52-3.66-4.88-7.59-10.08-1.08-1.45-2.72-3.59-4.92-6.42-.06-.09-.18-.19-.35-.28-.12.11-.19.28-.19.52,0,1.81.05,4.53.15,8.16s.15,6.34.15,8.16c0,.55-.21.82-.63.82h-8.11c-.45,0-.68-.24-.68-.73,0-1.69.08-4.23.25-7.64s.25-5.96.25-7.66c0-1.8-.07-4.48-.22-8.06s-.22-6.26-.22-8.04c0-.34.3-.52.91-.52.91,0,2.02-.06,3.35-.19.31-.03.93-.13,1.85-.3.78-.14,1.4-.21,1.85-.21.19,0,.48.27.87.8l8.74,11.98c.78,1.08,1.96,2.66,3.54,4.73.39.48.73.73,1.01.73.2,0,.3-.61.3-1.83,0-1.64-.09-4.11-.27-7.41s-.27-5.77-.27-7.43c0-.58.16-.87.49-.87.94,0,2.35-.04,4.24-.12s3.3-.12,4.24-.12c.3,0,.45.24.45.73Z"/>
      <path d="M497.84,284.25c0,1.2.07,2.99.21,5.37s.21,4.16.21,5.34c0,.62-.27.96-.82,1.01-1.94.14-4.16.21-6.66.21-.3,0-.5-.45-.6-1.35s-.22-1.36-.36-1.37c-.12.06-.29.2-.49.4-1.75,1.77-3.62,2.65-5.62,2.65-3.05,0-5.57-1.2-7.57-3.61-1.89-2.25-2.84-4.94-2.84-8.06,0-3.61.98-6.52,2.93-8.72,2.03-2.28,4.81-3.42,8.34-3.42,2.45,0,4.39.86,5.81,2.58.06.08.12.12.16.12.14,0,.3-.38.48-1.14s.39-1.14.64-1.14c.58,0,1.68.16,3.3.49,1.55.31,2.66.58,3.33.8.23.09.35.22.35.38,0,.06-.02.23-.07.49-.5,2.83-.75,5.82-.75,8.98ZM490.3,284.39c0-1.33-.42-2.43-1.25-3.29s-1.93-1.3-3.27-1.3-2.43.43-3.26,1.29-1.24,1.96-1.24,3.3c0,1.27.44,2.35,1.31,3.26s1.94,1.36,3.19,1.36c1.33,0,2.41-.43,3.26-1.3s1.27-1.97,1.27-3.32Z"/>
      <path d="M518.19,289.1c0,.47-.06,1.18-.18,2.13s-.18,1.65-.18,2.1-.05.73-.14.86-.35.3-.77.54c-2.02,1.11-4.25,1.66-6.7,1.66-4.52,0-6.77-1.73-6.77-5.18,0-1.03.04-2.58.12-4.65s.12-3.62.12-4.65c0-.69-.4-1.03-1.2-1.03h-.3c-.14.02-.24.02-.3.02-.59,0-.89-.21-.89-.63,0-.25.02-.63.06-1.15s.06-.9.06-1.15c0-.33-.02-.83-.06-1.5s-.06-1.17-.06-1.5.5-.48,1.5-.52c.56-.02.87-.17.91-.47.09-.59.12-1.53.09-2.81-.06-2.02-.09-2.98-.09-2.88,0-1.81.17-2.72.52-2.72.42,0,1.02.09,1.8.28.89.2,1.51.32,1.85.35.8.11,2,.26,3.61.45.39.03.59.16.59.4,0,.62-.05,1.57-.15,2.84s-.15,2.22-.15,2.86c0,.77.23,1.15.68,1.15.55,0,1.38-.02,2.48-.07s1.95-.07,2.51-.07c.34,0,.52.12.52.35,0,.36-.04.9-.12,1.62s-.12,1.26-.12,1.62,0,.92.02,1.64.02,1.27.02,1.64c0,.33-.23.49-.68.49-.31,0-.84-.01-1.57-.04s-1.26-.04-1.57-.04h-1.76c-.23,0-.35.34-.35,1.03v1.66c.02.75.02,1.3.02,1.66,0,1.31.15,2.22.45,2.72.42.67,1.25,1.01,2.48,1.01.39,0,.95-.09,1.68-.27s1.24-.27,1.54-.27c.33,0,.49.17.49.52Z"/>
      <path d="M529.32,285.21c0,1.14.02,2.84.07,5.1s.07,3.95.07,5.07c0,.33-.2.52-.59.59-.53.09-1.73.14-3.59.14s-3.08-.05-3.61-.14c-.34-.06-.55-.16-.63-.3-.03-.06-.05-.3-.05-.7,0-1.08.02-2.7.07-4.86s.07-3.79.07-4.89c0-4.44-.17-7.97-.52-10.59-.03-.25-.05-.41-.05-.49,0-.31.21-.47.63-.47s1.11.05,2,.14,1.57.14,2.03.14,1.13-.04,2.04-.12,1.59-.12,2.04-.12c.38,0,.56.16.56.47,0,.06-.02.21-.05.45-.34,3.05-.52,6.58-.52,10.59ZM529.93,267.8c0,2.72-1.53,4.08-4.59,4.08-1.31,0-2.4-.34-3.26-1.03-.94-.75-1.41-1.77-1.41-3.05s.48-2.22,1.45-3c.89-.72,1.96-1.08,3.21-1.08s2.27.37,3.16,1.1c.95.78,1.43,1.77,1.43,2.98Z"/>
      <path d="M556.39,284.44c0,3.56-1.09,6.45-3.27,8.67s-5.04,3.33-8.59,3.33-6.27-1.09-8.48-3.28-3.33-5-3.33-8.44c0-3.62,1.06-6.57,3.19-8.82s5-3.39,8.62-3.39,6.39,1.11,8.58,3.32,3.28,5.08,3.28,8.61ZM548.7,284.44c0-1.23-.38-2.32-1.15-3.27s-1.76-1.42-2.98-1.42-2.25.48-3.05,1.45c-.75.91-1.12,1.98-1.12,3.23s.38,2.35,1.12,3.26c.8.97,1.81,1.45,3.05,1.45s2.23-.48,3.02-1.45c.73-.91,1.1-1.99,1.1-3.26Z"/>
      <path d="M582.52,295.29c0,.42-.22.66-.66.73s-1.58.09-3.42.09c-1.97,0-3.19-.05-3.66-.14s-.7-.41-.7-.96c0-.73.02-1.84.07-3.33s.07-2.6.07-3.35c0-.58-.02-1.44-.05-2.59s-.05-2.01-.05-2.59c0-2.14-.93-3.21-2.79-3.21-.61,0-1.32.27-2.13.8-.88.59-1.31,1.18-1.31,1.76v12.66c0,.52-.24.8-.73.87-.55.06-1.66.09-3.35.09-1.83,0-3.02-.05-3.56-.14-.48-.08-.73-.34-.73-.77,0-1.22,0-3.05.02-5.51s.02-4.3.02-5.53c0-3.89-.3-6.95-.91-9.16-.03-.14-.05-.26-.05-.35,0-.25.12-.42.35-.52.98-.11,2.3-.28,3.94-.52,2.48-.48,3.88-.73,4.2-.73.17,0,.3.53.4,1.58s.23,1.58.4,1.58c-.17,0,.67-.54,2.52-1.63s3.47-1.63,4.86-1.63c1.98,0,3.64.47,4.97,1.41,1.48,1.08,2.23,2.58,2.23,4.5v7.48c0,1.02,0,2.54.02,4.56s.02,3.54.02,4.56Z"/>
      <path d="M609.99,284.25c0,1.2.07,2.99.21,5.37s.21,4.16.21,5.34c0,.62-.27.96-.82,1.01-1.94.14-4.16.21-6.66.21-.3,0-.5-.45-.6-1.35s-.22-1.36-.36-1.37c-.12.06-.29.2-.49.4-1.75,1.77-3.62,2.65-5.62,2.65-3.05,0-5.57-1.2-7.57-3.61-1.89-2.25-2.84-4.94-2.84-8.06,0-3.61.98-6.52,2.93-8.72,2.03-2.28,4.81-3.42,8.34-3.42,2.45,0,4.39.86,5.81,2.58.06.08.12.12.16.12.14,0,.3-.38.48-1.14s.39-1.14.64-1.14c.58,0,1.68.16,3.3.49,1.55.31,2.66.58,3.33.8.23.09.35.22.35.38,0,.06-.02.23-.07.49-.5,2.83-.75,5.82-.75,8.98ZM602.45,284.39c0-1.33-.42-2.43-1.25-3.29s-1.93-1.3-3.27-1.3-2.43.43-3.26,1.29-1.24,1.96-1.24,3.3c0,1.27.44,2.35,1.31,3.26s1.94,1.36,3.19,1.36c1.33,0,2.41-.43,3.26-1.3s1.27-1.97,1.27-3.32Z"/>
      <path d="M623.19,281.86c0,4.27.02,7.54.05,9.82,0,.36.02.98.07,1.85.05.8.07,1.41.07,1.85,0,.33-.2.52-.59.59-.7.12-1.97.19-3.8.19s-3.07-.06-3.59-.19c-.34-.08-.54-.29-.59-.63v-1.01c0-1.39.02-3.47.05-6.25s.05-4.85.05-6.22c0-6.56,0-9.55.02-8.98-.05-3.45-.24-6.43-.59-8.93-.03-.17-.05-.3-.05-.4,0-.34.2-.52.61-.52h8.37c.39,0,.57.16.54.49l-.02.42c-.41,6.75-.61,12.72-.61,17.91Z"/>
      <path d="M664.64,290.67c0,.25-.16.58-.49.98-2.88,3.42-6.7,5.13-11.46,5.13s-8.83-1.66-11.86-4.99c-2.95-3.22-4.43-7.28-4.43-12.19s1.45-8.78,4.34-12.09c3.02-3.47,6.85-5.2,11.51-5.2,5.06,0,9.03,1.55,11.91,4.66.31.34.47.65.47.91,0,.3-.54,1.4-1.63,3.3s-1.77,2.98-2.05,3.21c-.12.12-.28.19-.47.19-.08,0-.47-.31-1.17-.94-.84-.75-1.67-1.34-2.48-1.76-1.23-.62-2.52-.94-3.84-.94-2.3,0-4.13.86-5.51,2.58-1.27,1.59-1.9,3.56-1.9,5.91s.63,4.37,1.9,5.98c1.38,1.75,3.21,2.62,5.51,2.62,1.36,0,2.65-.3,3.87-.89.8-.39,1.61-.94,2.44-1.64.69-.59,1.07-.89,1.15-.89.16,0,.31.09.47.26.25.28.93,1.26,2.04,2.93,1.14,1.73,1.71,2.69,1.71,2.86Z"/>
      <path d="M690.4,278.98l-.05,16.17c0,.55-.22.85-.66.91-.5.06-1.64.09-3.42.09s-2.91-.06-3.59-.19c-.52-.09-.77-.43-.77-1.01,0-1.34.02-3.37.07-6.07s.07-4.73.07-6.07c0-1.83-.93-2.74-2.79-2.74-.62,0-1.36.25-2.2.75-.92.55-1.38,1.12-1.38,1.71v5.79c0,.75.02,1.88.05,3.39s.05,2.64.05,3.39c0,.58-.24.9-.73.96s-1.84.09-4.08.09c-1.28,0-2.2-.06-2.77-.19s-.84-.4-.84-.82c0-1.23,0-3.09.02-5.57s.02-4.33.02-5.57c0-5.11-.05-9.34-.16-12.68-.05-1.17-.09-2.34-.12-3.52-.08-1.36-.22-2.52-.42-3.49-.05-.2-.07-.35-.07-.45,0-.23.12-.39.35-.47.48-.14,1.2-.23,2.13-.26,1.25-.05,1.98-.09,2.18-.12l4.24-.49c.25,0,.38.16.38.49,0,.5-.03,1.18-.09,2.04-.06,1-.09,1.68-.09,2.04-.09,3.53-.14,6.32-.14,8.37,0,.31.08.47.23.47.03,0,.43-.27,1.2-.82.91-.64,1.77-1.15,2.6-1.52,1.23-.55,2.43-.82,3.59-.82,2,0,3.67.52,5.02,1.57,1.45,1.12,2.18,2.66,2.18,4.62Z"/>
      <path d="M715.69,283.24c0,1.58-.51,2.48-1.52,2.7-.17.03-1.79.2-4.85.52-1.84.2-4.59.45-8.25.73.22,1.02.88,1.79,1.99,2.32.91.44,1.94.66,3.09.66,1.39,0,2.79-.38,4.2-1.12l1.78-1.12c.33.16.88.95,1.65,2.39s1.16,2.35,1.16,2.74c0,.11-.12.29-.35.54-1.91,2.05-4.87,3.07-8.88,3.07-3.72,0-6.72-1.09-9-3.26-2.34-2.2-3.52-5.15-3.52-8.84s1.05-6.54,3.14-8.84c2.16-2.38,5.02-3.56,8.58-3.56,3,0,5.55,1.09,7.64,3.28s3.14,4.79,3.14,7.8ZM707.48,281.81c0-.97-.34-1.82-1.03-2.55s-1.51-1.1-2.46-1.1-1.8.41-2.44,1.24c-.59.77-.89,1.66-.89,2.7,0,.42.22.63.66.63,1.16,0,2.95-.18,5.39-.54.52-.08.77-.2.77-.38Z"/>
      <path d="M741.56,295.29c0,.42-.22.66-.66.73s-1.58.09-3.42.09c-1.97,0-3.19-.05-3.66-.14s-.7-.41-.7-.96c0-.73.02-1.84.07-3.33s.07-2.6.07-3.35c0-.58-.02-1.44-.05-2.59s-.05-2.01-.05-2.59c0-2.14-.93-3.21-2.79-3.21-.61,0-1.32.27-2.13.8-.88.59-1.31,1.18-1.31,1.76v12.66c0,.52-.24.8-.73.87-.55.06-1.66.09-3.35.09-1.83,0-3.02-.05-3.56-.14-.48-.08-.73-.34-.73-.77,0-1.22,0-3.05.02-5.51s.02-4.3.02-5.53c0-3.89-.3-6.95-.91-9.16-.03-.14-.05-.26-.05-.35,0-.25.12-.42.35-.52.98-.11,2.3-.28,3.94-.52,2.48-.48,3.88-.73,4.2-.73.17,0,.3.53.4,1.58s.23,1.58.4,1.58c-.17,0,.67-.54,2.52-1.63s3.47-1.63,4.86-1.63c1.98,0,3.64.47,4.97,1.41,1.48,1.08,2.23,2.58,2.23,4.5v7.48c0,1.02,0,2.54.02,4.56s.02,3.54.02,4.56Z"/>
      <path d="M768.82,289.88c0,4.45-.94,7.65-2.81,9.59-1.94,1.98-5.16,2.98-9.66,2.98-1.31,0-3.1-.21-5.37-.63-2.89-.53-4.34-1.16-4.34-1.88,0-.3.34-1.83,1.01-4.59.11-.44.28-.66.52-.66.08.02.16.05.26.09,2.41,1.19,4.63,1.78,6.68,1.78,1.12,0,2.24-.28,3.35-.84,1.34-.67,2.02-1.52,2.02-2.53v-1.57c-1.59,1.5-3.64,2.25-6.14,2.25-2.94,0-5.35-1.05-7.24-3.16-1.83-2.03-2.74-4.53-2.74-7.5s.88-5.46,2.62-7.43c1.83-2.05,4.22-3.07,7.17-3.07,2.36,0,4.16.84,5.41,2.53.25.34.42.52.52.52.14,0,.21-.28.21-.84,0-1.25.14-1.88.42-1.88.25,0,1.6.13,4.05.39s3.73.4,3.82.43c.27.09.4.3.4.61,0,1.08-.04,2.69-.11,4.83s-.11,3.75-.11,4.83c0,.64,0,1.6.02,2.88s.02,2.24.02,2.88ZM760.71,283.38c0-1.14-.38-2.13-1.14-2.96s-1.71-1.25-2.85-1.25-2.09.43-2.85,1.28-1.14,1.85-1.14,2.99.39,2.12,1.16,2.95,1.71,1.24,2.82,1.24,2.09-.42,2.85-1.27,1.14-1.84,1.14-2.98Z"/>
      <path d="M811.51,294.66c0,.67-.29,1.11-.87,1.31-.47.16-1.7.23-3.7.23s-3.33-.08-4.22-.23c-.42-.08-.7-.16-.83-.25s-.3-.31-.5-.67c-1.14-2.09-2.27-4.19-3.4-6.28-1.86-3.38-2.97-5.23-3.33-5.58-1.69.61-2.53,1.05-2.53,1.31,0,1.17.05,2.94.14,5.31s.14,4.14.14,5.33c0,.48-.21.76-.63.82-.81.12-2.28.19-4.41.19s-3.38-.06-4.03-.19c-.45-.09-.68-.34-.68-.73,0-1.69.08-4.23.25-7.64s.25-5.96.25-7.66c0-1.81-.08-4.54-.23-8.17s-.23-6.36-.23-8.17c0-.34.16-.52.49-.52.48,0,1.21.02,2.19.07s1.71.07,2.19.07,1.24-.02,2.23-.07,1.72-.07,2.2-.07c.27,0,.4.14.4.42,0,1.16-.06,2.9-.18,5.24s-.18,4.08-.18,5.24c0,1.34.37,2.02,1.1,2.02,1.86,0,3.3-.51,4.34-1.52.77-.75,1.54-2.12,2.32-4.1.5-1.52,1.32-3.75,2.46-6.7.17-.39.52-.59,1.05-.59.41,0,1.02.02,1.84.07s1.43.07,1.84.07,1.05-.02,1.89-.05,1.46-.05,1.86-.05c.38,0,.56.18.56.54,0,.52-.33,1.77-.98,3.77-1.94,5.91-4.16,9.59-6.68,11.06-.52.3-.77.54-.77.73,0-.02,1.44,2.33,4.32,7.03s4.32,7.5,4.32,8.39Z"/>
      <path d="M838.16,274.67c0,1.16-.05,2.89-.16,5.2s-.16,4.05-.16,5.2.04,2.81.12,5.06.12,3.93.12,5.04c0,.42-.2.69-.59.8-.59.16-1.85.23-3.77.23-1.7,0-2.89-.05-3.56-.14-.3-.05-.48-.23-.56-.56l-.14-1.41c-.08-.72-.19-1.08-.33-1.08.22,0-.57.53-2.37,1.59s-3.43,1.59-4.9,1.59c-4.14,0-6.59-1.87-7.36-5.6-.34-1.73-.52-4.25-.52-7.55,0-3.56.29-6.38.87-8.44.17-.64.49-.96.96-.96.72,0,1.81,0,3.28.02s2.56.02,3.28.02c.48,0,.73.2.73.61,0,.11-.02.27-.05.49-.33,2.12-.49,4.28-.49,6.47,0,2.72.09,4.58.26,5.58.28,1.72,1.3,2.58,3.07,2.58.69,0,1.43-.3,2.24-.91s1.22-1.24,1.25-1.9c.03-.58.05-4.5.05-11.77,0-.52.04-.82.12-.91.09-.16.38-.23.84-.23.77,0,1.92,0,3.46.02s2.69.02,3.46.02c.47,0,.74.12.82.35.03.12.05.31.05.56Z"/>
      <path d="M865.33,295.29c0,.42-.22.66-.66.73s-1.58.09-3.42.09c-1.97,0-3.19-.05-3.66-.14s-.7-.41-.7-.96c0-.73.02-1.84.07-3.33s.07-2.6.07-3.35c0-.58-.02-1.44-.05-2.59s-.05-2.01-.05-2.59c0-2.14-.93-3.21-2.79-3.21-.61,0-1.32.27-2.13.8-.88.59-1.31,1.18-1.31,1.76v12.66c0,.52-.24.8-.73.87-.55.06-1.66.09-3.35.09-1.83,0-3.02-.05-3.56-.14-.48-.08-.73-.34-.73-.77,0-1.22,0-3.05.02-5.51s.02-4.3.02-5.53c0-3.89-.3-6.95-.91-9.16-.03-.14-.05-.26-.05-.35,0-.25.12-.42.35-.52.98-.11,2.3-.28,3.94-.52,2.48-.48,3.88-.73,4.2-.73.17,0,.3.53.4,1.58s.23,1.58.4,1.58c-.17,0,.67-.54,2.52-1.63s3.47-1.63,4.86-1.63c1.98,0,3.64.47,4.97,1.41,1.48,1.08,2.23,2.58,2.23,4.5v7.48c0,1.02,0,2.54.02,4.56s.02,3.54.02,4.56Z"/>
      <path d="M892.58,289.88c0,4.45-.94,7.65-2.81,9.59-1.94,1.98-5.16,2.98-9.66,2.98-1.31,0-3.1-.21-5.37-.63-2.89-.53-4.34-1.16-4.34-1.88,0-.3.34-1.83,1.01-4.59.11-.44.28-.66.52-.66.08.02.16.05.26.09,2.41,1.19,4.63,1.78,6.68,1.78,1.12,0,2.24-.28,3.35-.84,1.34-.67,2.02-1.52,2.02-2.53v-1.57c-1.59,1.5-3.64,2.25-6.14,2.25-2.94,0-5.35-1.05-7.24-3.16-1.83-2.03-2.74-4.53-2.74-7.5s.88-5.46,2.62-7.43c1.83-2.05,4.22-3.07,7.17-3.07,2.36,0,4.16.84,5.41,2.53.25.34.42.52.52.52.14,0,.21-.28.21-.84,0-1.25.14-1.88.42-1.88.25,0,1.6.13,4.05.39s3.73.4,3.82.43c.27.09.4.3.4.61,0,1.08-.04,2.69-.11,4.83s-.11,3.75-.11,4.83c0,.64,0,1.6.02,2.88s.02,2.24.02,2.88ZM884.47,283.38c0-1.14-.38-2.13-1.14-2.96s-1.71-1.25-2.85-1.25-2.09.43-2.85,1.28-1.14,1.85-1.14,2.99.39,2.12,1.16,2.95,1.71,1.24,2.82,1.24,2.09-.42,2.85-1.27,1.14-1.84,1.14-2.98Z"/>
      <path d="M934.41,284.46c0,3.98-.48,6.7-1.43,8.16-1.75,2.66-6.12,3.98-13.1,3.98-3.16,0-5.59-.24-7.29-.73-2.72-.78-4.48-2.27-5.3-4.48-.41-1.08-.61-3-.61-5.77,0-.64.02-1.59.07-2.86s.07-2.21.07-2.84c0-1.81-.09-4.53-.26-8.16s-.26-6.34-.26-8.13c0-.38.16-.56.49-.56.95,0,2.39.04,4.32.12s3.37.12,4.32.12c.39,0,.59.17.59.52,0,2.06-.07,5.15-.2,9.27s-.2,7.21-.2,9.27c0,2.45.26,4.11.77,4.97.69,1.17,2.12,1.76,4.31,1.76,3.2,0,4.8-1.55,4.8-4.66,0-2.27-.05-5.66-.16-10.2s-.16-7.93-.16-10.2c0-.48.2-.73.59-.73.92,0,2.31-.04,4.17-.12s3.25-.12,4.17-.12c.45,0,.68.19.68.56,0,1.8-.07,4.51-.22,8.13s-.22,6.34-.22,8.16c0,.5,0,1.25.02,2.26s.02,1.76.02,2.26Z"/>
      <path d="M962.16,295.29c0,.42-.22.66-.66.73s-1.58.09-3.42.09c-1.97,0-3.19-.05-3.66-.14s-.7-.41-.7-.96c0-.73.02-1.84.07-3.33s.07-2.6.07-3.35c0-.58-.02-1.44-.05-2.59s-.05-2.01-.05-2.59c0-2.14-.93-3.21-2.79-3.21-.61,0-1.32.27-2.13.8-.88.59-1.31,1.18-1.31,1.76v12.66c0,.52-.24.8-.73.87-.55.06-1.66.09-3.35.09-1.83,0-3.02-.05-3.56-.14-.48-.08-.73-.34-.73-.77,0-1.22,0-3.05.02-5.51s.02-4.3.02-5.53c0-3.89-.3-6.95-.91-9.16-.03-.14-.05-.26-.05-.35,0-.25.12-.42.35-.52.98-.11,2.3-.28,3.94-.52,2.48-.48,3.88-.73,4.19-.73.17,0,.3.53.4,1.58s.23,1.58.4,1.58c-.17,0,.67-.54,2.52-1.63s3.47-1.63,4.86-1.63c1.98,0,3.64.47,4.97,1.41,1.48,1.08,2.23,2.58,2.23,4.5v7.48c0,1.02,0,2.54.02,4.56s.02,3.54.02,4.56Z"/>
      <path d="M974.75,285.21c0,1.14.02,2.84.07,5.1s.07,3.95.07,5.07c0,.33-.2.52-.59.59-.53.09-1.73.14-3.59.14s-3.08-.05-3.61-.14c-.34-.06-.55-.16-.63-.3-.03-.06-.05-.3-.05-.7,0-1.08.02-2.7.07-4.86s.07-3.79.07-4.89c0-4.44-.17-7.97-.52-10.59-.03-.25-.05-.41-.05-.49,0-.31.21-.47.63-.47s1.11.05,2,.14,1.57.14,2.03.14,1.13-.04,2.04-.12,1.59-.12,2.04-.12c.38,0,.56.16.56.47,0,.06-.02.21-.05.45-.34,3.05-.52,6.58-.52,10.59ZM975.35,267.8c0,2.72-1.53,4.08-4.59,4.08-1.31,0-2.4-.34-3.26-1.03-.94-.75-1.41-1.77-1.41-3.05s.48-2.22,1.45-3c.89-.72,1.96-1.08,3.21-1.08s2.27.37,3.16,1.1c.95.78,1.43,1.77,1.43,2.98Z"/>
      <path d="M1001.82,279.7c0,2.67-.09,4.25-.26,4.73-.36,1.11-1.44,2.99-3.23,5.65-1.56,2.28-2.9,4.06-4.01,5.34-.41.48-1.63.73-3.68.73-1.78,0-2.94-.06-3.47-.19-.33-.08-.6-.23-.82-.47-.94-1.02-2.27-2.78-4.01-5.3-1.86-2.7-2.97-4.55-3.33-5.55-.39-1.08-.59-2.7-.59-4.85,0-.61,0-1.53.02-2.75s.02-2.15.02-2.78c0-.41.27-.61.82-.61.8,0,2,.02,3.6.07s2.8.07,3.6.07c.36,0,.54.24.54.73,0,.44-.03,1.1-.09,1.98s-.09,1.55-.09,2c0,1.62.05,2.95.14,3.98.05.53.5,1.53,1.36,3,.89,1.55,1.54,2.32,1.95,2.32s1.02-.76,1.88-2.27c.83-1.42,1.27-2.39,1.34-2.91.12-1.11.19-2.45.19-4.03,0-.45-.05-1.14-.14-2.05s-.14-1.59-.14-2.03c0-.48.16-.73.49-.73.38,0,.93,0,1.68.02s1.3.02,1.68.02.94-.03,1.7-.09,1.32-.09,1.7-.09.65.2.77.61c.27.89.4,2.7.4,5.44Z"/>
      <path d="M1026.47,283.24c0,1.58-.51,2.48-1.52,2.7-.17.03-1.79.2-4.85.52-1.84.2-4.59.45-8.25.73.22,1.02.88,1.79,1.99,2.32.91.44,1.94.66,3.09.66,1.39,0,2.79-.38,4.2-1.12l1.78-1.12c.33.16.88.95,1.65,2.39s1.16,2.35,1.16,2.74c0,.11-.12.29-.35.54-1.91,2.05-4.87,3.07-8.88,3.07-3.72,0-6.72-1.09-9-3.26-2.34-2.2-3.52-5.15-3.52-8.84s1.05-6.54,3.14-8.84c2.16-2.38,5.02-3.56,8.58-3.56,3,0,5.55,1.09,7.64,3.28s3.14,4.79,3.14,7.8ZM1018.27,281.81c0-.97-.34-1.82-1.03-2.55s-1.51-1.1-2.46-1.1-1.8.41-2.44,1.24c-.59.77-.89,1.66-.89,2.7,0,.42.22.63.66.63,1.16,0,2.95-.18,5.39-.54.52-.08.77-.2.77-.38Z"/>
      <path d="M1044.59,281.37c0,.61-.34.91-1.01.91-.3,0-.73-.02-1.3-.06s-1-.06-1.28-.06c-1.3,0-2.18.2-2.65.61s-.7,1.23-.7,2.46c0,.67.01,1.69.04,3.06s.04,2.39.04,3.06c0,.45.03,1.13.09,2.03s.09,1.57.09,2c0,.38-.26.59-.77.63-.75.06-1.9.09-3.45.09s-2.67-.05-3.56-.14c-.52-.06-.77-.32-.77-.77,0-1.25,0-3.12.02-5.61s.02-4.36.02-5.61c0-3.67-.34-6.7-1.01-9.07-.03-.14-.05-.26-.05-.35,0-.23.12-.39.35-.47.86-.09,2.12-.27,3.77-.52,2.47-.48,3.74-.73,3.82-.73.28,0,.46.49.54,1.48s.22,1.48.42,1.48c-.22,0,.42-.41,1.92-1.23s2.95-1.23,4.34-1.23c.88,0,1.31.19,1.31.56,0,.45-.05,1.09-.14,1.92-.09.89-.15,1.53-.16,1.92,0,.45,0,1.05.02,1.8.03.92.05,1.53.05,1.83Z"/>
      <path d="M1061.04,277.01c0,.16-.12.37-.35.63-.44-.11-.88-.16-1.31-.16-.92,0-1.7.2-2.32.61-.75.47-1.12,1.13-1.12,1.99,0,.55.4,1.24,1.2,2.09,1.2,1.27,1.95,2.12,2.23,2.55.8,1.19,1.2,2.46,1.2,3.82,0,.8-.16,1.64-.47,2.53-.36.98-.81,1.7-1.36,2.16-1.16,1-2.51,1.84-4.05,2.53-1.67.72-3.21,1.08-4.62,1.08-.31,0-1.01-.85-2.1-2.54s-1.63-2.73-1.63-3.11c0-.14.09-.23.26-.26,1.09-.2,2.2-.41,3.3-.61,1.38-.44,2.06-1.16,2.06-2.16,0-.69-.4-1.48-1.2-2.39-1.42-1.58-2.16-2.41-2.23-2.51-.8-1.12-1.2-2.31-1.2-3.56,0-2.34,1.19-4.34,3.56-5.98,2.12-1.45,4.4-2.18,6.82-2.18.25,0,.87.84,1.85,2.52s1.48,2.66,1.48,2.94Z"/>
      <path d="M1073.09,285.21c0,1.14.02,2.84.07,5.1s.07,3.95.07,5.07c0,.33-.2.52-.59.59-.53.09-1.73.14-3.59.14s-3.08-.05-3.61-.14c-.34-.06-.55-.16-.63-.3-.03-.06-.05-.3-.05-.7,0-1.08.02-2.7.07-4.86s.07-3.79.07-4.89c0-4.44-.17-7.97-.52-10.59-.03-.25-.05-.41-.05-.49,0-.31.21-.47.63-.47s1.11.05,2,.14,1.57.14,2.03.14,1.13-.04,2.04-.12,1.59-.12,2.04-.12c.38,0,.56.16.56.47,0,.06-.02.21-.05.45-.34,3.05-.52,6.58-.52,10.59ZM1073.7,267.8c0,2.72-1.53,4.08-4.59,4.08-1.31,0-2.4-.34-3.26-1.03-.94-.75-1.41-1.77-1.41-3.05s.48-2.22,1.45-3c.89-.72,1.96-1.08,3.21-1.08s2.27.37,3.16,1.1c.95.78,1.43,1.77,1.43,2.98Z"/>
      <path d="M1093.29,289.1c0,.47-.06,1.18-.18,2.13s-.18,1.65-.18,2.1-.05.73-.14.86-.35.3-.77.54c-2.02,1.11-4.25,1.66-6.7,1.66-4.52,0-6.77-1.73-6.77-5.18,0-1.03.04-2.58.12-4.65s.12-3.62.12-4.65c0-.69-.4-1.03-1.2-1.03h-.3c-.14.02-.24.02-.3.02-.59,0-.89-.21-.89-.63,0-.25.02-.63.06-1.15s.06-.9.06-1.15c0-.33-.02-.83-.06-1.5s-.06-1.17-.06-1.5.5-.48,1.5-.52c.56-.02.87-.17.91-.47.09-.59.12-1.53.09-2.81-.06-2.02-.09-2.98-.09-2.88,0-1.81.17-2.72.52-2.72.42,0,1.02.09,1.8.28.89.2,1.51.32,1.85.35.8.11,2,.26,3.61.45.39.03.59.16.59.4,0,.62-.05,1.57-.15,2.84s-.15,2.22-.15,2.86c0,.77.23,1.15.68,1.15.55,0,1.38-.02,2.48-.07s1.95-.07,2.51-.07c.34,0,.52.12.52.35,0,.36-.04.9-.12,1.62s-.12,1.26-.12,1.62,0,.92.02,1.64.02,1.27.02,1.64c0,.33-.23.49-.68.49-.31,0-.84-.01-1.57-.04s-1.26-.04-1.57-.04h-1.76c-.23,0-.35.34-.35,1.03v1.66c.02.75.02,1.3.02,1.66,0,1.31.15,2.22.45,2.72.42.67,1.25,1.01,2.48,1.01.39,0,.95-.09,1.68-.27s1.24-.27,1.54-.27c.33,0,.49.17.49.52Z"/>
      <path d="M1118.77,279.26c0,3.03-.09,4.88-.28,5.53-.23.78-1.95,3.61-5.13,8.48-.5.77-1.79,2.54-3.87,5.32-2.3,3.06-3.6,4.68-3.91,4.85-.38.23-2.77.35-7.2.35-.67,0-1.12-.08-1.36-.23-.2-.64-.46-1.4-.77-2.27-.25-.55-.5-1.1-.75-1.66-.36-.81-.54-1.35-.54-1.62,0-.3.13-.45.4-.45,4.34,0,6.52-.99,6.52-2.98,0-.17-1.06-1.73-3.19-4.66-2.2-3.02-3.41-4.92-3.63-5.72-.12-.45-.19-2.07-.19-4.85,0-.56.02-1.41.05-2.54s.05-1.98.05-2.54c0-.41.26-.61.77-.61.8,0,2,.02,3.62.07s2.82.07,3.62.07c.33,0,.49.24.49.73,0,.44-.02,1.1-.07,1.98s-.07,1.54-.07,1.98c0,1.97.03,3.3.09,4.01.05.55.52,1.56,1.41,3.05.94,1.55,1.62,2.32,2.04,2.32.36,0,.97-.77,1.83-2.3.8-1.45,1.23-2.43,1.29-2.93.16-1.38.23-2.87.23-4.48,0-.42-.04-1.06-.12-1.92s-.12-1.51-.12-1.95c0-.3.16-.45.49-.45.8,0,1.99-.03,3.57-.09s2.78-.09,3.57-.09c.41,0,.68.2.82.61.22.72.33,2.38.33,4.99Z"/>
      <path d="M1158.74,290.67c0,.25-.16.58-.49.98-2.88,3.42-6.7,5.13-11.46,5.13s-8.83-1.66-11.86-4.99c-2.95-3.22-4.43-7.28-4.43-12.19s1.45-8.78,4.34-12.09c3.02-3.47,6.85-5.2,11.51-5.2,5.06,0,9.03,1.55,11.91,4.66.31.34.47.65.47.91,0,.3-.54,1.4-1.63,3.3s-1.77,2.98-2.05,3.21c-.12.12-.28.19-.47.19-.08,0-.47-.31-1.17-.94-.84-.75-1.67-1.34-2.48-1.76-1.23-.62-2.52-.94-3.84-.94-2.3,0-4.13.86-5.51,2.58-1.27,1.59-1.9,3.56-1.9,5.91s.63,4.37,1.9,5.98c1.38,1.75,3.21,2.62,5.51,2.62,1.36,0,2.65-.3,3.87-.89.8-.39,1.61-.94,2.44-1.64.69-.59,1.07-.89,1.15-.89.16,0,.31.09.47.26.25.28.93,1.26,2.04,2.93,1.14,1.73,1.71,2.69,1.71,2.86Z"/>
      <path d="M1185.23,274.67c0,1.16-.05,2.89-.16,5.2s-.16,4.05-.16,5.2.04,2.81.12,5.06.12,3.93.12,5.04c0,.42-.2.69-.59.8-.59.16-1.85.23-3.77.23-1.7,0-2.89-.05-3.56-.14-.3-.05-.48-.23-.56-.56l-.14-1.41c-.08-.72-.19-1.08-.33-1.08.22,0-.57.53-2.37,1.59s-3.43,1.59-4.9,1.59c-4.14,0-6.59-1.87-7.36-5.6-.34-1.73-.52-4.25-.52-7.55,0-3.56.29-6.38.87-8.44.17-.64.49-.96.96-.96.72,0,1.81,0,3.28.02s2.56.02,3.28.02c.48,0,.73.2.73.61,0,.11-.02.27-.05.49-.33,2.12-.49,4.28-.49,6.47,0,2.72.09,4.58.26,5.58.28,1.72,1.3,2.58,3.07,2.58.69,0,1.43-.3,2.24-.91s1.22-1.24,1.25-1.9c.03-.58.05-4.5.05-11.77,0-.52.04-.82.12-.91.09-.16.38-.23.84-.23.77,0,1.92,0,3.46.02s2.69.02,3.46.02c.47,0,.74.12.82.35.03.12.05.31.05.56Z"/>
      <path d="M1214.95,284.7c0,3.34-.98,6.12-2.95,8.32-2.03,2.28-4.7,3.42-7.99,3.42-1.2,0-2.49-.3-3.87-.89s-2-.89-1.88-.89c-.2,0-.3.23-.3.7,0,.8.04,2,.12,3.6s.12,2.8.12,3.6c0,.5-.26.75-.77.75l-4.78.02c-1.08,0-1.77-.04-2.09-.12-.47-.11-.7-.4-.7-.87l.05-18.05c0-3.64-.27-6.71-.82-9.21-.03-.16-.05-.29-.05-.4,0-.23.09-.39.28-.47.61-.23,1.77-.48,3.49-.75,1.67-.27,2.88-.4,3.63-.4.61,0,.96.4,1.04,1.21s.19,1.21.32,1.21c-.16,0,.51-.43,2-1.28s2.85-1.28,4.07-1.28c3.39,0,6.1,1.12,8.13,3.35,1.97,2.16,2.95,4.96,2.95,8.41ZM1206.25,284.65c0-1.25-.38-2.34-1.15-3.28-.83-.98-1.85-1.48-3.07-1.48s-2.25.49-3,1.48c-.66.89-.98,1.98-.98,3.28s.34,2.43,1.03,3.3c.73.95,1.75,1.43,3.05,1.43,2.75,0,4.12-1.58,4.12-4.73Z"/>
      <path d="M1237.3,278.65c0,1.84.05,4.62.14,8.32s.14,6.48.14,8.32c0,.31-.07.51-.21.59-.03.02-.23.05-.61.09-1.02.12-2.38.19-4.08.19-2.28,0-3.73-.06-4.36-.19-.45-.09-.68-.34-.68-.73,0,.25.07-1.12.21-4.12.28-6.33.42-10.48.42-12.47,0-1.67-.05-4.18-.16-7.52s-.16-5.85-.16-7.52c0-.34.18-.52.54-.52.48,0,1.21.02,2.19.07s1.71.07,2.19.07,1.2-.02,2.14-.07,1.66-.07,2.14-.07c.45,0,.68.17.68.52,0,1.67-.09,4.18-.27,7.52s-.27,5.85-.27,7.52Z"/>
      <path d="M1265.21,295.29c0,.42-.22.66-.66.73s-1.58.09-3.42.09c-1.97,0-3.19-.05-3.66-.14s-.7-.41-.7-.96c0-.73.02-1.84.07-3.33s.07-2.6.07-3.35c0-.58-.02-1.44-.05-2.59s-.05-2.01-.05-2.59c0-2.14-.93-3.21-2.79-3.21-.61,0-1.32.27-2.13.8-.88.59-1.31,1.18-1.31,1.76v12.66c0,.52-.24.8-.73.87-.55.06-1.66.09-3.35.09-1.83,0-3.02-.05-3.56-.14-.48-.08-.73-.34-.73-.77,0-1.22,0-3.05.02-5.51s.02-4.3.02-5.53c0-3.89-.3-6.95-.91-9.16-.03-.14-.05-.26-.05-.35,0-.25.12-.42.35-.52.98-.11,2.3-.28,3.94-.52,2.48-.48,3.88-.73,4.2-.73.17,0,.3.53.4,1.58s.23,1.58.4,1.58c-.17,0,.67-.54,2.52-1.63s3.47-1.63,4.86-1.63c1.98,0,3.64.47,4.97,1.41,1.48,1.08,2.23,2.58,2.23,4.5v7.48c0,1.02,0,2.54.02,4.56s.02,3.54.02,4.56Z"/>
      <path d="M1284.81,289.1c0,.47-.06,1.18-.18,2.13s-.18,1.65-.18,2.1-.05.73-.14.86-.35.3-.77.54c-2.02,1.11-4.25,1.66-6.7,1.66-4.52,0-6.77-1.73-6.77-5.18,0-1.03.04-2.58.12-4.65s.12-3.62.12-4.65c0-.69-.4-1.03-1.2-1.03h-.3c-.14.02-.24.02-.3.02-.59,0-.89-.21-.89-.63,0-.25.02-.63.06-1.15s.06-.9.06-1.15c0-.33-.02-.83-.06-1.5s-.06-1.17-.06-1.5.5-.48,1.5-.52c.56-.02.87-.17.91-.47.09-.59.12-1.53.09-2.81-.06-2.02-.09-2.98-.09-2.88,0-1.81.17-2.72.52-2.72.42,0,1.02.09,1.8.28.89.2,1.51.32,1.85.35.8.11,2,.26,3.61.45.39.03.59.16.59.4,0,.62-.05,1.57-.15,2.84s-.15,2.22-.15,2.86c0,.77.23,1.15.68,1.15.55,0,1.38-.02,2.48-.07s1.95-.07,2.51-.07c.34,0,.52.12.52.35,0,.36-.04.9-.12,1.62s-.12,1.26-.12,1.62,0,.92.02,1.64.02,1.27.02,1.64c0,.33-.23.49-.68.49-.31,0-.84-.01-1.57-.04s-1.26-.04-1.57-.04h-1.76c-.23,0-.35.34-.35,1.03v1.66c.02.75.02,1.3.02,1.66,0,1.31.15,2.22.45,2.72.42.67,1.25,1.01,2.48,1.01.39,0,.95-.09,1.68-.27s1.24-.27,1.54-.27c.33,0,.49.17.49.52Z"/>
      <path d="M1308.74,283.24c0,1.58-.51,2.48-1.52,2.7-.17.03-1.79.2-4.85.52-1.84.2-4.59.45-8.25.73.22,1.02.88,1.79,1.99,2.32.91.44,1.94.66,3.09.66,1.39,0,2.79-.38,4.2-1.12l1.78-1.12c.33.16.88.95,1.65,2.39s1.16,2.35,1.16,2.74c0,.11-.12.29-.35.54-1.91,2.05-4.87,3.07-8.88,3.07-3.72,0-6.72-1.09-9-3.26-2.34-2.2-3.52-5.15-3.52-8.84s1.05-6.54,3.14-8.84c2.16-2.38,5.02-3.56,8.58-3.56,3,0,5.55,1.09,7.64,3.28s3.14,4.79,3.14,7.8ZM1300.53,281.81c0-.97-.34-1.82-1.03-2.55s-1.51-1.1-2.46-1.1-1.8.41-2.44,1.24c-.59.77-.89,1.66-.89,2.7,0,.42.22.63.66.63,1.16,0,2.95-.18,5.39-.54.52-.08.77-.2.77-.38Z"/>
      <path d="M1326.85,281.37c0,.61-.34.91-1.01.91-.3,0-.73-.02-1.3-.06s-1-.06-1.28-.06c-1.3,0-2.18.2-2.65.61s-.7,1.23-.7,2.46c0,.67.01,1.69.04,3.06s.04,2.39.04,3.06c0,.45.03,1.13.09,2.03s.09,1.57.09,2c0,.38-.26.59-.77.63-.75.06-1.9.09-3.45.09s-2.67-.05-3.56-.14c-.52-.06-.77-.32-.77-.77,0-1.25,0-3.12.02-5.61s.02-4.36.02-5.61c0-3.67-.34-6.7-1.01-9.07-.03-.14-.05-.26-.05-.35,0-.23.12-.39.35-.47.86-.09,2.12-.27,3.77-.52,2.47-.48,3.74-.73,3.82-.73.28,0,.46.49.54,1.48s.22,1.48.42,1.48c-.22,0,.42-.41,1.92-1.23s2.95-1.23,4.34-1.23c.88,0,1.31.19,1.31.56,0,.45-.05,1.09-.14,1.92-.09.89-.15,1.53-.16,1.92,0,.45,0,1.05.02,1.8.03.92.05,1.53.05,1.83Z"/>
      <path d="M1345.11,280.55s-.49-.12-1.42-.38-1.68-.38-2.26-.38c-1.39,0-2.5.42-3.33,1.25s-1.24,1.95-1.24,3.34.45,2.57,1.36,3.39,2.09,1.23,3.54,1.23c.69,0,1.46-.18,2.32-.53s1.27-.53,1.22-.53c.27,0,.61.99,1.03,2.98.36,1.81.54,3.02.54,3.61s-.97,1.1-2.91,1.52c-1.5.33-2.71.49-3.63.49-3.44,0-6.27-1.16-8.51-3.47s-3.35-5.2-3.35-8.65,1.12-6.3,3.36-8.64,5.07-3.5,8.5-3.5c2.33,0,4.38.5,6.14,1.5.41.22.61.43.61.63s-.23,1.12-.7,2.77c-.44,1.58-.72,2.53-.86,2.86s-.27.49-.41.49Z"/>
      <path d="M1372.11,284.44c0,3.56-1.09,6.45-3.27,8.67s-5.04,3.33-8.59,3.33-6.27-1.09-8.48-3.28-3.33-5-3.33-8.44c0-3.62,1.06-6.57,3.19-8.82s5-3.39,8.62-3.39,6.39,1.11,8.58,3.32,3.28,5.08,3.28,8.61ZM1364.42,284.44c0-1.23-.38-2.32-1.15-3.27s-1.76-1.42-2.98-1.42-2.25.48-3.05,1.45c-.75.91-1.12,1.98-1.12,3.23s.38,2.35,1.12,3.26c.8.97,1.81,1.45,3.05,1.45s2.23-.48,3.02-1.45c.73-.91,1.1-1.99,1.1-3.26Z"/>
      <path d="M1383.48,281.86c0,4.27.02,7.54.05,9.82,0,.36.02.98.07,1.85.05.8.07,1.41.07,1.85,0,.33-.2.52-.59.59-.7.12-1.97.19-3.8.19s-3.07-.06-3.59-.19c-.34-.08-.54-.29-.59-.63v-1.01c0-1.39.02-3.47.05-6.25s.05-4.85.05-6.22c0-6.56,0-9.55.02-8.98-.05-3.45-.24-6.43-.59-8.93-.03-.17-.05-.3-.05-.4,0-.34.2-.52.61-.52h8.37c.39,0,.57.16.54.49l-.02.42c-.41,6.75-.61,12.72-.61,17.91Z"/>
      <path d="M1396.3,281.86c0,4.27.02,7.54.05,9.82,0,.36.02.98.07,1.85.05.8.07,1.41.07,1.85,0,.33-.2.52-.59.59-.7.12-1.97.19-3.8.19s-3.07-.06-3.59-.19c-.34-.08-.54-.29-.59-.63v-1.01c0-1.39.02-3.47.05-6.25s.05-4.85.05-6.22c0-6.56,0-9.55.02-8.98-.05-3.45-.24-6.43-.59-8.93-.03-.17-.05-.3-.05-.4,0-.34.2-.52.61-.52h8.37c.39,0,.57.16.54.49l-.02.42c-.41,6.75-.61,12.72-.61,17.91Z"/>
      <path d="M1422.06,283.24c0,1.58-.51,2.48-1.52,2.7-.17.03-1.79.2-4.85.52-1.84.2-4.59.45-8.25.73.22,1.02.88,1.79,1.99,2.32.91.44,1.94.66,3.09.66,1.39,0,2.79-.38,4.2-1.12l1.78-1.12c.33.16.88.95,1.65,2.39s1.16,2.35,1.16,2.74c0,.11-.12.29-.35.54-1.91,2.05-4.87,3.07-8.88,3.07-3.72,0-6.72-1.09-9-3.26-2.34-2.2-3.52-5.15-3.52-8.84s1.05-6.54,3.14-8.84c2.16-2.38,5.02-3.56,8.58-3.56,3,0,5.55,1.09,7.64,3.28s3.14,4.79,3.14,7.8ZM1413.85,281.81c0-.97-.34-1.82-1.03-2.55s-1.51-1.1-2.46-1.1-1.8.41-2.44,1.24c-.59.77-.89,1.66-.89,2.7,0,.42.22.63.66.63,1.16,0,2.95-.18,5.39-.54.52-.08.77-.2.77-.38Z"/>
      <path d="M1447.98,289.88c0,4.45-.94,7.65-2.81,9.59-1.94,1.98-5.16,2.98-9.66,2.98-1.31,0-3.1-.21-5.37-.63-2.89-.53-4.34-1.16-4.34-1.88,0-.3.34-1.83,1.01-4.59.11-.44.28-.66.52-.66.08.02.16.05.26.09,2.41,1.19,4.63,1.78,6.68,1.78,1.12,0,2.24-.28,3.35-.84,1.34-.67,2.02-1.52,2.02-2.53v-1.57c-1.59,1.5-3.64,2.25-6.14,2.25-2.94,0-5.35-1.05-7.24-3.16-1.83-2.03-2.74-4.53-2.74-7.5s.88-5.46,2.62-7.43c1.83-2.05,4.22-3.07,7.17-3.07,2.36,0,4.16.84,5.41,2.53.25.34.42.52.52.52.14,0,.21-.28.21-.84,0-1.25.14-1.88.42-1.88.25,0,1.6.13,4.05.39s3.73.4,3.82.43c.27.09.4.3.4.61,0,1.08-.04,2.69-.11,4.83s-.11,3.75-.11,4.83c0,.64,0,1.6.02,2.88s.02,2.24.02,2.88ZM1439.87,283.38c0-1.14-.38-2.13-1.14-2.96s-1.71-1.25-2.85-1.25-2.09.43-2.85,1.28-1.14,1.85-1.14,2.99.39,2.12,1.16,2.95,1.71,1.24,2.82,1.24,2.09-.42,2.85-1.27,1.14-1.84,1.14-2.98Z"/>
      <path d="M1460.7,285.21c0,1.14.02,2.84.07,5.1s.07,3.95.07,5.07c0,.33-.2.52-.59.59-.53.09-1.73.14-3.59.14s-3.08-.05-3.61-.14c-.34-.06-.55-.16-.63-.3-.03-.06-.05-.3-.05-.7,0-1.08.02-2.7.07-4.86s.07-3.79.07-4.89c0-4.44-.17-7.97-.52-10.59-.03-.25-.05-.41-.05-.49,0-.31.21-.47.63-.47s1.11.05,2,.14,1.57.14,2.03.14,1.13-.04,2.04-.12,1.59-.12,2.04-.12c.38,0,.56.16.56.47,0,.06-.02.21-.05.45-.34,3.05-.52,6.58-.52,10.59ZM1461.31,267.8c0,2.72-1.53,4.08-4.59,4.08-1.31,0-2.4-.34-3.26-1.03-.94-.75-1.41-1.77-1.41-3.05s.48-2.22,1.45-3c.89-.72,1.96-1.08,3.21-1.08s2.27.37,3.16,1.1c.95.78,1.43,1.77,1.43,2.98Z"/>
      <path d="M1488.78,284.25c0,1.2.07,2.99.21,5.37s.21,4.16.21,5.34c0,.62-.27.96-.82,1.01-1.94.14-4.16.21-6.66.21-.3,0-.5-.45-.6-1.35s-.22-1.36-.36-1.37c-.12.06-.29.2-.49.4-1.75,1.77-3.62,2.65-5.62,2.65-3.05,0-5.57-1.2-7.57-3.61-1.89-2.25-2.84-4.94-2.84-8.06,0-3.61.98-6.52,2.93-8.72,2.03-2.28,4.81-3.42,8.34-3.42,2.45,0,4.39.86,5.81,2.58.06.08.12.12.16.12.14,0,.3-.38.48-1.14s.39-1.14.64-1.14c.58,0,1.68.16,3.3.49,1.55.31,2.66.58,3.33.8.23.09.35.22.35.38,0,.06-.02.23-.07.49-.5,2.83-.75,5.82-.75,8.98ZM1481.24,284.39c0-1.33-.42-2.43-1.25-3.29s-1.93-1.3-3.27-1.3-2.43.43-3.26,1.29-1.24,1.96-1.24,3.3c0,1.27.44,2.35,1.31,3.26s1.94,1.36,3.19,1.36c1.33,0,2.41-.43,3.26-1.3s1.27-1.97,1.27-3.32Z"/>
      <path d="M1509.13,289.1c0,.47-.06,1.18-.18,2.13s-.18,1.65-.18,2.1-.05.73-.14.86-.35.3-.77.54c-2.02,1.11-4.25,1.66-6.7,1.66-4.52,0-6.77-1.73-6.77-5.18,0-1.03.04-2.58.12-4.65s.12-3.62.12-4.65c0-.69-.4-1.03-1.2-1.03h-.3c-.14.02-.24.02-.3.02-.59,0-.89-.21-.89-.63,0-.25.02-.63.06-1.15s.06-.9.06-1.15c0-.33-.02-.83-.06-1.5s-.06-1.17-.06-1.5.5-.48,1.5-.52c.56-.02.87-.17.91-.47.09-.59.12-1.53.09-2.81-.06-2.02-.09-2.98-.09-2.88,0-1.81.17-2.72.52-2.72.42,0,1.02.09,1.8.28.89.2,1.51.32,1.85.35.8.11,2,.26,3.61.45.39.03.59.16.59.4,0,.62-.05,1.57-.15,2.84s-.15,2.22-.15,2.86c0,.77.23,1.15.68,1.15.55,0,1.38-.02,2.48-.07s1.95-.07,2.51-.07c.34,0,.52.12.52.35,0,.36-.04.9-.12,1.62s-.12,1.26-.12,1.62,0,.92.02,1.64.02,1.27.02,1.64c0,.33-.23.49-.68.49-.31,0-.84-.01-1.57-.04s-1.26-.04-1.57-.04h-1.76c-.23,0-.35.34-.35,1.03v1.66c.02.75.02,1.3.02,1.66,0,1.31.15,2.22.45,2.72.42.67,1.25,1.01,2.48,1.01.39,0,.95-.09,1.68-.27s1.24-.27,1.54-.27c.33,0,.49.17.49.52Z"/>
      <path d="M1533.06,283.24c0,1.58-.51,2.48-1.52,2.7-.17.03-1.79.2-4.85.52-1.84.2-4.59.45-8.25.73.22,1.02.88,1.79,1.99,2.32.91.44,1.94.66,3.09.66,1.39,0,2.79-.38,4.2-1.12l1.78-1.12c.33.16.88.95,1.65,2.39s1.16,2.35,1.16,2.74c0,.11-.12.29-.35.54-1.91,2.05-4.87,3.07-8.88,3.07-3.72,0-6.72-1.09-9-3.26-2.34-2.2-3.52-5.15-3.52-8.84s1.05-6.54,3.14-8.84c2.16-2.38,5.02-3.56,8.58-3.56,3,0,5.55,1.09,7.64,3.28s3.14,4.79,3.14,7.8ZM1524.85,281.81c0-.97-.34-1.82-1.03-2.55s-1.51-1.1-2.46-1.1-1.8.41-2.44,1.24c-.59.77-.89,1.66-.89,2.7,0,.42.22.63.66.63,1.16,0,2.95-.18,5.39-.54.52-.08.77-.2.77-.38Z"/>
      <path d="M1576.34,295.38c0,.28-.2.48-.59.59-.47.12-1.92.19-4.36.19-2.23,0-3.67-.06-4.31-.19-.53-.11-.87-.46-1.01-1.05-.53-2.25-.95-3.45-1.24-3.61-.25-.11-2.34-.16-6.28-.16-2.66,0-4.07.07-4.24.21-.27.25-.56,1.09-.89,2.51-.3,1.3-.66,2-1.08,2.11-.53.12-2.31.19-5.34.19-2.39,0-3.59-.23-3.59-.68,0-.41,1.77-5.4,5.3-14.98,3.83-10.36,5.91-16.05,6.23-17.09.19-.59.41-.89.66-.89.42,0,1.07.04,1.96.12s1.54.12,1.98.12,1.04-.03,1.86-.08,1.43-.08,1.84-.08c.3,0,.57.26.82.77.77,1.64,3,7.27,6.7,16.88,3.72,9.67,5.58,14.72,5.58,15.14ZM1559.72,274.03c-.33.69-.88,2.18-1.66,4.48-.84,2.44-1.27,3.87-1.27,4.29,0,.28.47.44,1.41.47.48.03,1.28.05,2.39.05,1.03,0,1.6-.12,1.71-.38.03-.08.05-.19.05-.33,0-.52-.36-1.94-1.08-4.27-.7-2.25-1.22-3.69-1.55-4.31Z"/>
      <path d="M1594.24,289.1c0,.47-.06,1.18-.18,2.13s-.18,1.65-.18,2.1-.05.73-.14.86-.35.3-.77.54c-2.02,1.11-4.25,1.66-6.7,1.66-4.52,0-6.77-1.73-6.77-5.18,0-1.03.04-2.58.12-4.65s.12-3.62.12-4.65c0-.69-.4-1.03-1.2-1.03h-.3c-.14.02-.24.02-.3.02-.59,0-.89-.21-.89-.63,0-.25.02-.63.06-1.15s.06-.9.06-1.15c0-.33-.02-.83-.06-1.5s-.06-1.17-.06-1.5.5-.48,1.5-.52c.56-.02.87-.17.91-.47.09-.59.12-1.53.09-2.81-.06-2.02-.09-2.98-.09-2.88,0-1.81.17-2.72.52-2.72.42,0,1.02.09,1.8.28.89.2,1.51.32,1.85.35.8.11,2,.26,3.61.45.39.03.59.16.59.4,0,.62-.05,1.57-.15,2.84s-.15,2.22-.15,2.86c0,.77.23,1.15.68,1.15.55,0,1.38-.02,2.48-.07s1.95-.07,2.51-.07c.34,0,.52.12.52.35,0,.36-.04.9-.12,1.62s-.12,1.26-.12,1.62,0,.92.02,1.64.02,1.27.02,1.64c0,.33-.23.49-.68.49-.31,0-.84-.01-1.57-.04s-1.26-.04-1.57-.04h-1.76c-.23,0-.35.34-.35,1.03v1.66c.02.75.02,1.3.02,1.66,0,1.31.15,2.22.45,2.72.42.67,1.25,1.01,2.48,1.01.39,0,.95-.09,1.68-.27s1.24-.27,1.54-.27c.33,0,.49.17.49.52Z"/>
      <path d="M1620.09,278.98l-.05,16.17c0,.55-.22.85-.66.91-.5.06-1.64.09-3.42.09s-2.91-.06-3.59-.19c-.52-.09-.77-.43-.77-1.01,0-1.34.02-3.37.07-6.07s.07-4.73.07-6.07c0-1.83-.93-2.74-2.79-2.74-.62,0-1.36.25-2.2.75-.92.55-1.38,1.12-1.38,1.71v5.79c0,.75.02,1.88.05,3.39s.05,2.64.05,3.39c0,.58-.24.9-.73.96s-1.84.09-4.08.09c-1.28,0-2.2-.06-2.77-.19s-.84-.4-.84-.82c0-1.23,0-3.09.02-5.57s.02-4.33.02-5.57c0-5.11-.05-9.34-.16-12.68-.05-1.17-.09-2.34-.12-3.52-.08-1.36-.22-2.52-.42-3.49-.05-.2-.07-.35-.07-.45,0-.23.12-.39.35-.47.48-.14,1.2-.23,2.13-.26,1.25-.05,1.98-.09,2.18-.12l4.24-.49c.25,0,.38.16.38.49,0,.5-.03,1.18-.09,2.04-.06,1-.09,1.68-.09,2.04-.09,3.53-.14,6.32-.14,8.37,0,.31.08.47.23.47.03,0,.43-.27,1.2-.82.91-.64,1.77-1.15,2.6-1.52,1.23-.55,2.43-.82,3.59-.82,2,0,3.67.52,5.02,1.57,1.45,1.12,2.18,2.66,2.18,4.62Z"/>
      <path d="M1632.44,281.86c0,4.27.02,7.54.05,9.82,0,.36.02.98.07,1.85.05.8.07,1.41.07,1.85,0,.33-.2.52-.59.59-.7.12-1.97.19-3.8.19s-3.07-.06-3.59-.19c-.34-.08-.54-.29-.59-.63v-1.01c0-1.39.02-3.47.05-6.25s.05-4.85.05-6.22c0-6.56,0-9.55.02-8.98-.05-3.45-.24-6.43-.59-8.93-.03-.17-.05-.3-.05-.4,0-.34.2-.52.61-.52h8.37c.39,0,.57.16.54.49l-.02.42c-.41,6.75-.61,12.72-.61,17.91Z"/>
      <path d="M1658.2,283.24c0,1.58-.51,2.48-1.52,2.7-.17.03-1.79.2-4.85.52-1.84.2-4.59.45-8.25.73.22,1.02.88,1.79,1.99,2.32.91.44,1.94.66,3.09.66,1.39,0,2.79-.38,4.2-1.12l1.78-1.12c.33.16.88.95,1.65,2.39s1.16,2.35,1.16,2.74c0,.11-.12.29-.35.54-1.91,2.05-4.87,3.07-8.88,3.07-3.72,0-6.72-1.09-9-3.26-2.34-2.2-3.52-5.15-3.52-8.84s1.05-6.54,3.14-8.84c2.16-2.38,5.02-3.56,8.58-3.56,3,0,5.55,1.09,7.64,3.28s3.14,4.79,3.14,7.8ZM1650,281.81c0-.97-.34-1.82-1.03-2.55s-1.51-1.1-2.46-1.1-1.8.41-2.44,1.24c-.59.77-.89,1.66-.89,2.7,0,.42.22.63.66.63,1.16,0,2.95-.18,5.39-.54.52-.08.77-.2.77-.38Z"/>
      <path d="M1676.46,289.1c0,.47-.06,1.18-.18,2.13s-.18,1.65-.18,2.1-.05.73-.14.86-.35.3-.77.54c-2.02,1.11-4.25,1.66-6.7,1.66-4.52,0-6.77-1.73-6.77-5.18,0-1.03.04-2.58.12-4.65s.12-3.62.12-4.65c0-.69-.4-1.03-1.2-1.03h-.3c-.14.02-.24.02-.3.02-.59,0-.89-.21-.89-.63,0-.25.02-.63.06-1.15s.06-.9.06-1.15c0-.33-.02-.83-.06-1.5s-.06-1.17-.06-1.5.5-.48,1.5-.52c.56-.02.87-.17.91-.47.09-.59.12-1.53.09-2.81-.06-2.02-.09-2.98-.09-2.88,0-1.81.17-2.72.52-2.72.42,0,1.02.09,1.8.28.89.2,1.51.32,1.85.35.8.11,2,.26,3.61.45.39.03.59.16.59.4,0,.62-.05,1.57-.15,2.84s-.15,2.22-.15,2.86c0,.77.23,1.15.68,1.15.55,0,1.38-.02,2.48-.07s1.95-.07,2.51-.07c.34,0,.52.12.52.35,0,.36-.04.9-.12,1.62s-.12,1.26-.12,1.62,0,.92.02,1.64.02,1.27.02,1.64c0,.33-.23.49-.68.49-.31,0-.84-.01-1.57-.04s-1.26-.04-1.57-.04h-1.76c-.23,0-.35.34-.35,1.03v1.66c.02.75.02,1.3.02,1.66,0,1.31.15,2.22.45,2.72.42.67,1.25,1.01,2.48,1.01.39,0,.95-.09,1.68-.27s1.24-.27,1.54-.27c.33,0,.49.17.49.52Z"/>
      <path d="M1687.59,285.21c0,1.14.02,2.84.07,5.1s.07,3.95.07,5.07c0,.33-.2.52-.59.59-.53.09-1.73.14-3.59.14s-3.08-.05-3.61-.14c-.34-.06-.55-.16-.63-.3-.03-.06-.05-.3-.05-.7,0-1.08.02-2.7.07-4.86s.07-3.79.07-4.89c0-4.44-.17-7.97-.52-10.59-.03-.25-.05-.41-.05-.49,0-.31.21-.47.63-.47s1.11.05,2,.14,1.57.14,2.03.14,1.13-.04,2.04-.12,1.59-.12,2.04-.12c.38,0,.56.16.56.47,0,.06-.02.21-.05.45-.34,3.05-.52,6.58-.52,10.59ZM1688.2,267.8c0,2.72-1.53,4.08-4.59,4.08-1.31,0-2.4-.34-3.26-1.03-.94-.75-1.41-1.77-1.41-3.05s.48-2.22,1.45-3c.89-.72,1.96-1.08,3.21-1.08s2.27.37,3.16,1.1c.95.78,1.43,1.77,1.43,2.98Z"/>
      <path d="M1707.63,280.55s-.49-.12-1.42-.38-1.68-.38-2.26-.38c-1.39,0-2.5.42-3.33,1.25s-1.24,1.95-1.24,3.34.45,2.57,1.36,3.39,2.09,1.23,3.54,1.23c.69,0,1.46-.18,2.32-.53s1.27-.53,1.22-.53c.27,0,.61.99,1.03,2.98.36,1.81.54,3.02.54,3.61s-.97,1.1-2.91,1.52c-1.5.33-2.71.49-3.63.49-3.44,0-6.27-1.16-8.51-3.47s-3.35-5.2-3.35-8.65,1.12-6.3,3.36-8.64,5.07-3.5,8.5-3.5c2.33,0,4.38.5,6.14,1.5.41.22.61.43.61.63s-.23,1.12-.7,2.77c-.44,1.58-.72,2.53-.86,2.86s-.27.49-.41.49Z"/>
      <path d="M1725.8,277.01c0,.16-.12.37-.35.63-.44-.11-.88-.16-1.31-.16-.92,0-1.7.2-2.32.61-.75.47-1.12,1.13-1.12,1.99,0,.55.4,1.24,1.2,2.09,1.2,1.27,1.95,2.12,2.23,2.55.8,1.19,1.2,2.46,1.2,3.82,0,.8-.16,1.64-.47,2.53-.36.98-.81,1.7-1.36,2.16-1.16,1-2.51,1.84-4.05,2.53-1.67.72-3.21,1.08-4.62,1.08-.31,0-1.01-.85-2.1-2.54s-1.63-2.73-1.63-3.11c0-.14.09-.23.26-.26,1.09-.2,2.2-.41,3.3-.61,1.38-.44,2.06-1.16,2.06-2.16,0-.69-.4-1.48-1.2-2.39-1.42-1.58-2.16-2.41-2.23-2.51-.8-1.12-1.2-2.31-1.2-3.56,0-2.34,1.19-4.34,3.56-5.98,2.12-1.45,4.4-2.18,6.82-2.18.25,0,.87.84,1.85,2.52s1.48,2.66,1.48,2.94Z"/>
      <path d="M1766.34,290.67c0,.25-.16.58-.49.98-2.88,3.42-6.7,5.13-11.46,5.13s-8.83-1.66-11.86-4.99c-2.95-3.22-4.43-7.28-4.43-12.19s1.45-8.78,4.34-12.09c3.02-3.47,6.85-5.2,11.51-5.2,5.06,0,9.03,1.55,11.91,4.66.31.34.47.65.47.91,0,.3-.54,1.4-1.63,3.3s-1.77,2.98-2.05,3.21c-.12.12-.28.19-.47.19-.08,0-.47-.31-1.17-.94-.84-.75-1.67-1.34-2.48-1.76-1.23-.62-2.52-.94-3.84-.94-2.3,0-4.13.86-5.51,2.58-1.27,1.59-1.9,3.56-1.9,5.91s.63,4.37,1.9,5.98c1.38,1.75,3.21,2.62,5.51,2.62,1.36,0,2.65-.3,3.87-.89.8-.39,1.61-.94,2.44-1.64.69-.59,1.07-.89,1.15-.89.16,0,.31.09.47.26.25.28.93,1.26,2.04,2.93,1.14,1.73,1.71,2.69,1.71,2.86Z"/>
      <path d="M1792.09,278.98l-.05,16.17c0,.55-.22.85-.66.91-.5.06-1.64.09-3.42.09s-2.91-.06-3.59-.19c-.52-.09-.77-.43-.77-1.01,0-1.34.02-3.37.07-6.07s.07-4.73.07-6.07c0-1.83-.93-2.74-2.79-2.74-.62,0-1.36.25-2.2.75-.92.55-1.38,1.12-1.38,1.71v5.79c0,.75.02,1.88.05,3.39s.05,2.64.05,3.39c0,.58-.24.9-.73.96s-1.84.09-4.08.09c-1.28,0-2.2-.06-2.77-.19s-.84-.4-.84-.82c0-1.23,0-3.09.02-5.57s.02-4.33.02-5.57c0-5.11-.05-9.34-.16-12.68-.05-1.17-.09-2.34-.12-3.52-.08-1.36-.22-2.52-.42-3.49-.05-.2-.07-.35-.07-.45,0-.23.12-.39.35-.47.48-.14,1.2-.23,2.13-.26,1.25-.05,1.98-.09,2.18-.12l4.24-.49c.25,0,.38.16.38.49,0,.5-.03,1.18-.09,2.04-.06,1-.09,1.68-.09,2.04-.09,3.53-.14,6.32-.14,8.37,0,.31.08.47.23.47.03,0,.43-.27,1.2-.82.91-.64,1.77-1.15,2.6-1.52,1.23-.55,2.43-.82,3.59-.82,2,0,3.67.52,5.02,1.57,1.45,1.12,2.18,2.66,2.18,4.62Z"/>
      <path d="M1819.47,284.25c0,1.2.07,2.99.21,5.37s.21,4.16.21,5.34c0,.62-.27.96-.82,1.01-1.94.14-4.16.21-6.66.21-.3,0-.5-.45-.6-1.35s-.22-1.36-.36-1.37c-.12.06-.29.2-.49.4-1.75,1.77-3.62,2.65-5.62,2.65-3.05,0-5.57-1.2-7.57-3.61-1.89-2.25-2.84-4.94-2.84-8.06,0-3.61.98-6.52,2.93-8.72,2.03-2.28,4.81-3.42,8.34-3.42,2.45,0,4.39.86,5.81,2.58.06.08.12.12.16.12.14,0,.3-.38.48-1.14s.39-1.14.64-1.14c.58,0,1.68.16,3.3.49,1.55.31,2.66.58,3.33.8.23.09.35.22.35.38,0,.06-.02.23-.07.49-.5,2.83-.75,5.82-.75,8.98ZM1811.92,284.39c0-1.33-.42-2.43-1.25-3.29s-1.93-1.3-3.27-1.3-2.43.43-3.26,1.29-1.24,1.96-1.24,3.3c0,1.27.44,2.35,1.31,3.26s1.94,1.36,3.19,1.36c1.33,0,2.41-.43,3.26-1.3s1.27-1.97,1.27-3.32Z"/>
      <path d="M1861.59,295.1c0,.55-.23.85-.7.91s-1.62.09-3.47.09-3.09-.05-3.56-.14-.7-.48-.7-1.15c0-.72.02-1.79.07-3.22s.07-2.5.07-3.22c0-2.73-.03-4.68-.09-5.84-.09-1.86-.98-2.79-2.65-2.79-.73,0-1.46.31-2.19.93s-1.13,1.3-1.21,2.05c-.06.66-.09,2.58-.09,5.77,0,.73.02,1.85.07,3.34s.07,2.61.07,3.36c0,.52-.23.77-.68.77h-7.1c-.44,0-.66-.32-.66-.96,0-.73.02-1.84.07-3.3s.07-2.58.07-3.33c0-.58-.02-1.45-.05-2.62s-.05-2.05-.05-2.65c0-2.23-.85-3.35-2.55-3.35-.69,0-1.43.27-2.23.8-.88.58-1.31,1.19-1.31,1.83,0,1.42,0,3.55.02,6.38s.02,4.95.02,6.35c0,.39-.05.63-.14.73s-.34.16-.73.19c-.7.06-1.81.09-3.33.09-.98,0-2.1-.05-3.35-.14-.38-.03-.6-.09-.67-.16s-.11-.31-.11-.7c0-1.25,0-3.12.02-5.61s.02-4.36.02-5.61c0-2.56-.19-5.45-.56-8.65-.03-.19-.05-.33-.05-.42,0-.27.11-.45.33-.54.34-.14.99-.26,1.95-.35,1.17-.11,1.87-.18,2.09-.21.16-.03.77-.2,1.85-.49.77-.22,1.38-.33,1.85-.33.3,0,.45.54.47,1.63s.08,1.63.19,1.63c.16-.06.34-.17.54-.33,1.41-1.09,2.52-1.84,3.33-2.25,1.2-.58,2.51-.87,3.91-.87s2.72.32,3.84.96c1.27.72,2.09,1.73,2.46,3.02.83-1.12,1.97-2.07,3.42-2.84s2.87-1.15,4.24-1.15c2.06,0,3.74.48,5.04,1.43,1.47,1.08,2.2,2.62,2.2,4.62,0,.83-.02,2.07-.07,3.74s-.07,2.91-.07,3.74c0,.98.02,2.46.07,4.44s.07,3.46.07,4.44Z"/>
      <path d="M1891.89,284.7c0,3.34-.98,6.12-2.95,8.32-2.03,2.28-4.7,3.42-7.99,3.42-1.2,0-2.49-.3-3.87-.89s-2-.89-1.88-.89c-.2,0-.3.23-.3.7,0,.8.04,2,.12,3.6s.12,2.8.12,3.6c0,.5-.26.75-.77.75l-4.78.02c-1.08,0-1.77-.04-2.09-.12-.47-.11-.7-.4-.7-.87l.05-18.05c0-3.64-.27-6.71-.82-9.21-.03-.16-.05-.29-.05-.4,0-.23.09-.39.28-.47.61-.23,1.77-.48,3.49-.75,1.67-.27,2.88-.4,3.63-.4.61,0,.96.4,1.04,1.21s.19,1.21.32,1.21c-.16,0,.51-.43,2-1.28s2.85-1.28,4.07-1.28c3.39,0,6.1,1.12,8.13,3.35,1.97,2.16,2.95,4.96,2.95,8.41ZM1883.19,284.65c0-1.25-.38-2.34-1.15-3.28-.83-.98-1.85-1.48-3.07-1.48s-2.25.49-3,1.48c-.66.89-.98,1.98-.98,3.28s.34,2.43,1.03,3.3c.73.95,1.75,1.43,3.05,1.43,2.75,0,4.12-1.58,4.12-4.73Z"/>
      <path d="M1903.61,285.21c0,1.14.02,2.84.07,5.1s.07,3.95.07,5.07c0,.33-.2.52-.59.59-.53.09-1.73.14-3.59.14s-3.08-.05-3.61-.14c-.34-.06-.55-.16-.63-.3-.03-.06-.05-.3-.05-.7,0-1.08.02-2.7.07-4.86s.07-3.79.07-4.89c0-4.44-.17-7.97-.52-10.59-.03-.25-.05-.41-.05-.49,0-.31.21-.47.63-.47s1.11.05,2,.14,1.57.14,2.03.14,1.13-.04,2.04-.12,1.59-.12,2.04-.12c.38,0,.56.16.56.47,0,.06-.02.21-.05.45-.34,3.05-.52,6.58-.52,10.59ZM1904.22,267.8c0,2.72-1.53,4.08-4.59,4.08-1.31,0-2.4-.34-3.26-1.03-.94-.75-1.41-1.77-1.41-3.05s.48-2.22,1.45-3c.89-.72,1.96-1.08,3.21-1.08s2.27.37,3.16,1.1c.95.78,1.43,1.77,1.43,2.98Z"/>
      <path d="M1930.68,284.44c0,3.56-1.09,6.45-3.27,8.67s-5.04,3.33-8.59,3.33-6.27-1.09-8.48-3.28-3.33-5-3.33-8.44c0-3.62,1.06-6.57,3.19-8.82s5-3.39,8.62-3.39,6.39,1.11,8.58,3.32,3.28,5.08,3.28,8.61ZM1922.99,284.44c0-1.23-.38-2.32-1.15-3.27s-1.76-1.42-2.98-1.42-2.25.48-3.05,1.45c-.75.91-1.12,1.98-1.12,3.23s.38,2.35,1.12,3.26c.8.97,1.81,1.45,3.05,1.45s2.23-.48,3.02-1.45c.73-.91,1.1-1.99,1.1-3.26Z"/>
      <path d="M1956.81,295.29c0,.42-.22.66-.66.73s-1.58.09-3.42.09c-1.97,0-3.19-.05-3.66-.14s-.7-.41-.7-.96c0-.73.02-1.84.07-3.33s.07-2.6.07-3.35c0-.58-.02-1.44-.05-2.59s-.05-2.01-.05-2.59c0-2.14-.93-3.21-2.79-3.21-.61,0-1.32.27-2.13.8-.88.59-1.31,1.18-1.31,1.76v12.66c0,.52-.24.8-.73.87-.55.06-1.66.09-3.35.09-1.83,0-3.02-.05-3.56-.14-.48-.08-.73-.34-.73-.77,0-1.22,0-3.05.02-5.51s.02-4.3.02-5.53c0-3.89-.3-6.95-.91-9.16-.03-.14-.05-.26-.05-.35,0-.25.12-.42.35-.52.98-.11,2.3-.28,3.94-.52,2.48-.48,3.88-.73,4.2-.73.17,0,.3.53.4,1.58s.23,1.58.4,1.58c-.17,0,.67-.54,2.52-1.63s3.47-1.63,4.86-1.63c1.98,0,3.64.47,4.97,1.41,1.48,1.08,2.23,2.58,2.23,4.5v7.48c0,1.02,0,2.54.02,4.56s.02,3.54.02,4.56Z"/>
      <path d="M1974.44,277.01c0,.16-.12.37-.35.63-.44-.11-.88-.16-1.31-.16-.92,0-1.7.2-2.32.61-.75.47-1.12,1.13-1.12,1.99,0,.55.4,1.24,1.2,2.09,1.2,1.27,1.95,2.12,2.23,2.55.8,1.19,1.2,2.46,1.2,3.82,0,.8-.16,1.64-.47,2.53-.36.98-.81,1.7-1.36,2.16-1.16,1-2.51,1.84-4.05,2.53-1.67.72-3.21,1.08-4.62,1.08-.31,0-1.01-.85-2.1-2.54s-1.63-2.73-1.63-3.11c0-.14.09-.23.26-.26,1.09-.2,2.2-.41,3.3-.61,1.38-.44,2.06-1.16,2.06-2.16,0-.69-.4-1.48-1.2-2.39-1.42-1.58-2.16-2.41-2.23-2.51-.8-1.12-1.2-2.31-1.2-3.56,0-2.34,1.19-4.34,3.56-5.98,2.12-1.45,4.4-2.18,6.82-2.18.25,0,.87.84,1.85,2.52s1.48,2.66,1.48,2.94Z"/>
      <path d="M2001.2,278.98l-.05,16.17c0,.55-.22.85-.66.91-.5.06-1.64.09-3.42.09s-2.91-.06-3.59-.19c-.52-.09-.77-.43-.77-1.01,0-1.34.02-3.37.07-6.07s.07-4.73.07-6.07c0-1.83-.93-2.74-2.79-2.74-.62,0-1.36.25-2.2.75-.92.55-1.38,1.12-1.38,1.71v5.79c0,.75.02,1.88.05,3.39s.05,2.64.05,3.39c0,.58-.24.9-.73.96s-1.84.09-4.08.09c-1.28,0-2.2-.06-2.77-.19s-.84-.4-.84-.82c0-1.23,0-3.09.02-5.57s.02-4.33.02-5.57c0-5.11-.05-9.34-.16-12.68-.05-1.17-.09-2.34-.12-3.52-.08-1.36-.22-2.52-.42-3.49-.05-.2-.07-.35-.07-.45,0-.23.12-.39.35-.47.48-.14,1.2-.23,2.13-.26,1.25-.05,1.98-.09,2.18-.12l4.24-.49c.25,0,.38.16.38.49,0,.5-.03,1.18-.09,2.04-.06,1-.09,1.68-.09,2.04-.09,3.53-.14,6.32-.14,8.37,0,.31.08.47.23.47.03,0,.43-.27,1.2-.82.91-.64,1.77-1.15,2.6-1.52,1.23-.55,2.43-.82,3.59-.82,2,0,3.67.52,5.02,1.57,1.45,1.12,2.18,2.66,2.18,4.62Z"/>
      <path d="M2013.69,285.21c0,1.14.02,2.84.07,5.1s.07,3.95.07,5.07c0,.33-.2.52-.59.59-.53.09-1.73.14-3.59.14s-3.08-.05-3.61-.14c-.34-.06-.55-.16-.63-.3-.03-.06-.05-.3-.05-.7,0-1.08.02-2.7.07-4.86s.07-3.79.07-4.89c0-4.44-.17-7.97-.52-10.59-.03-.25-.05-.41-.05-.49,0-.31.21-.47.63-.47s1.11.05,2,.14,1.57.14,2.03.14,1.13-.04,2.04-.12,1.59-.12,2.04-.12c.38,0,.56.16.56.47,0,.06-.02.21-.05.45-.34,3.05-.52,6.58-.52,10.59ZM2014.3,267.8c0,2.72-1.53,4.08-4.59,4.08-1.31,0-2.4-.34-3.26-1.03-.94-.75-1.41-1.77-1.41-3.05s.48-2.22,1.45-3c.89-.72,1.96-1.08,3.21-1.08s2.27.37,3.16,1.1c.95.78,1.43,1.77,1.43,2.98Z"/>
      <path d="M2044.07,284.7c0,3.34-.98,6.12-2.95,8.32-2.03,2.28-4.7,3.42-7.99,3.42-1.2,0-2.49-.3-3.87-.89s-2-.89-1.88-.89c-.2,0-.3.23-.3.7,0,.8.04,2,.12,3.6s.12,2.8.12,3.6c0,.5-.26.75-.77.75l-4.78.02c-1.08,0-1.77-.04-2.09-.12-.47-.11-.7-.4-.7-.87l.05-18.05c0-3.64-.27-6.71-.82-9.21-.03-.16-.05-.29-.05-.4,0-.23.09-.39.28-.47.61-.23,1.77-.48,3.49-.75,1.67-.27,2.88-.4,3.63-.4.61,0,.96.4,1.04,1.21s.19,1.21.32,1.21c-.16,0,.51-.43,2-1.28s2.85-1.28,4.07-1.28c3.39,0,6.1,1.12,8.13,3.35,1.97,2.16,2.95,4.96,2.95,8.41ZM2035.37,284.65c0-1.25-.38-2.34-1.15-3.28-.83-.98-1.85-1.48-3.07-1.48s-2.25.49-3,1.48c-.66.89-.98,1.98-.98,3.28s.34,2.43,1.03,3.3c.73.95,1.75,1.43,3.05,1.43,2.75,0,4.12-1.58,4.12-4.73Z"/>
    </g>
    <g>
      <rect class="cls-2" x="351.46" y="58.47" width="247.63" height="41.81"/>
      <path d="M361.12,53.13l8.02,3.56c.41.22.58.55.52.98-.06.44-.28.7-.66.8l-1.17.42-.7,1.45h4.78l1.78-2.58c.22-.28.52-.45.89-.52.31-.06.61.06.89.38l3.05,3.28c.87-2.47,1.44-4.97,1.69-7.5l7.12,3.52c.34.16.48.45.42.89-.06.38-.28.59-.66.66l-.98.09-1.22,1.78h5.62l1.73-2.86c.22-.28.48-.44.8-.47.31-.03.59.08.84.33l3.42,3.66c.25.25.33.61.23,1.08-.16.38-.42.61-.8.7h-9.98c1.53.62,2.39,1.77,2.58,3.42l5.62,2.91c.28.16.45.44.52.84,0,.38-.14.64-.42.8l-.7.47v5.11c0,.81-.36,1.34-1.08,1.59l-4.5.94c-.38.09-.7.05-.98-.14-.25-.19-.41-.45-.47-.8v-1.73h-6.56v4.69h9.61l1.17-1.12c.19-.28.45-.45.77-.49s.62.02.87.21l4.22,3.38c.25.28.33.59.23.94-.06.38-.25.62-.56.75l-.56.33c.25,4.03-.38,7.91-1.88,11.62-.41.94-1.03,1.63-1.88,2.09s-1.77.62-2.77.49c-1.09-.31-1.75-1.05-1.97-2.2-.09-1.31-.69-2.25-1.78-2.81l-4.92-2.72c1.88.56,3.77.8,5.67.7,1.03.06,1.77-.41,2.2-1.41.56-2.31.75-4.7.56-7.17h-9v13.27c0,.81-.41,1.33-1.22,1.55l-4.55,1.03c-.44.09-.8.03-1.08-.19-.31-.25-.47-.56-.47-.94v-8.34c-6.34,3.47-13.11,5.81-20.3,7.03,6.84-2.84,12.36-7.31,16.55-13.41h-5.77l-.23,1.08c-.31.88-.91,1.31-1.78,1.31l-4.45.09c-.38.06-.73-.06-1.08-.38-.25-.34-.33-.7-.23-1.08l2.86-12.05,5.25,1.64h9.19v-2.95h-12.89l-1.08-1.64c-1.72,1.5-3.72,2.8-6,3.89,4.84-5.81,7.39-12.56,7.64-20.25ZM365.57,62.78c-1.44,2.09-3.11,4.02-5.02,5.77h9.8c-.88-.41-1.36-1.11-1.45-2.11-.16-1.41-.67-2.62-1.55-3.66h-1.78ZM365.71,76.33l-1.03,4.55h8.77v-4.55h-7.73ZM371.01,62.78c1.19.38,2.08,1.16,2.67,2.34.25.75.2,1.44-.14,2.06-.34.69-.89,1.14-1.64,1.36h2.77c1.31-1.91,2.34-3.83,3.09-5.77h-6.75ZM383.19,62.36c-1.97,2.31-4.28,4.38-6.94,6.19h9.84c-1-.38-1.5-1.11-1.5-2.2-.09-1.44-.56-2.77-1.41-3.98ZM380.76,71.13v2.95h6.56v-2.95h-6.56Z"/>
      <path d="M400.3,92.83h35.95l3.47-4.41c.22-.25.48-.38.8-.38.34,0,.59.12.75.38l5.02,5.72c.22.25.23.56.05.94s-.45.56-.8.56h-43.83l-1.41-2.81ZM404.38,61.05h29.06l2.62-3.75c.16-.25.41-.38.75-.38.28,0,.52.12.7.38l5.25,5.25c.25.25.28.5.09.75-.09.31-.34.47-.75.47h-36.19l-1.55-2.72Z"/>
      <path d="M466.87,53.17l9,1.97c.56.16.91.49,1.03,1.01.12.52,0,.98-.38,1.38l-1.5,1.41v12.7h8.62l3.75-4.59c.19-.25.44-.38.75-.38s.56.11.75.33l5.62,5.62c.19.22.25.5.19.84-.12.34-.34.56-.66.66h-19.03v23.11c0,.34-.11.64-.33.89-.22.25-.48.41-.8.47l-5.72.8c-.75,0-1.19-.36-1.31-1.08v-24.19h-17.44l-1.31-2.48h18.75v-18.47Z"/>
      <path d="M497.52,98.78c3.34-8.31,5.08-16.81,5.2-25.5l-.84-19.03,6.61,2.39h24.23l1.27-1.83c.22-.28.51-.48.87-.59.36-.11.66-.05.91.16l3.98,2.02c.34.19.59.47.75.84.06.53-.08.94-.42,1.22l-.89,1.08v7.73c.12.91-.25,1.5-1.12,1.78-1.19.47-2.44.7-3.75.7-.5-.06-.91-.23-1.22-.49-.31-.27-.47-.65-.47-1.15v-1.31h-24v8.06c-.12,4.53-1.09,8.82-2.88,12.87-1.8,4.05-4.54,7.73-8.23,11.04ZM508.63,59.17v5.16h24v-5.16h-24ZM533.29,93.91h-18.09v1.69c0,.66-.33,1.08-.98,1.27-1.16.5-2.38.66-3.66.47-.44,0-.77-.16-1.01-.47s-.32-.67-.26-1.08v-22.27l5.58.98c.62.06,1.02.39,1.17.98.19.59.19,1,0,1.22h4.88v-9.75l6.33,1.27c.56.06.92.39,1.08.98.16.56-.03,1.02-.56,1.36-.63.34-.91.89-.84,1.64v4.5h1.59l2.06-2.48c.22-.31.55-.47.98-.47.38,0,.69.17.94.52l.8.8v-2.25l6.38,1.31c.59,0,.97.3,1.12.89.22.56.06,1.02-.47,1.36-.69.59-1,1.36-.94,2.3v15.89c0,.81-.3,1.42-.89,1.83-1.16.81-2.44,1.09-3.84.84-.84-.16-1.3-.61-1.36-1.36v-1.97ZM515.19,91.05h18.09v-3.23h-17.06l-1.27-2.2h5.95v-6.47h-5.67l-.05-.47v12.38ZM526.91,79.14v6.47h.84l1.97-2.2c.34-.31.73-.5,1.17-.56.44,0,.8.12,1.08.38l1.31,1.45v-5.53h-6.38Z"/>
    </g>
  </g>
</svg>